<svg width="101" height="101" viewBox="0 0 101 101" fill="none" xmlns="http://www.w3.org/2000/svg">
<path d="M30.9516 11.4032C30.9516 8.70881 28.7589 6.51613 26.0645 6.51613C23.3701 6.51613 21.1774 8.70881 21.1774 11.4032C21.1774 14.0976 23.3701 16.2903 26.0645 16.2903C28.7589 16.2903 30.9516 14.0976 30.9516 11.4032ZM26.0645 13.0323C25.1653 13.0323 24.4355 12.3025 24.4355 11.4032C24.4355 10.504 25.1653 9.77419 26.0645 9.77419C26.9637 9.77419 27.6935 10.504 27.6935 11.4032C27.6935 12.3025 26.9637 13.0323 26.0645 13.0323Z" fill="#3498DB"/>
<path d="M37.4677 22.8065H14.6613C13.7604 22.8065 13.0323 23.5346 13.0323 24.4355V34.2097C13.0323 35.1105 13.7604 35.8387 14.6613 35.8387H37.4677C38.3686 35.8387 39.0968 35.1105 39.0968 34.2097V24.4355C39.0968 23.5346 38.3686 22.8065 37.4677 22.8065ZM35.8387 32.5806H16.2903V26.0645H35.8387V32.5806Z" fill="#3498DB"/>
<path d="M13.0323 39.0968H16.2903V42.3548H13.0323V39.0968Z" fill="#3498DB"/>
<path d="M19.5484 39.0968H39.0968V42.3548H19.5484V39.0968Z" fill="#3498DB"/>
<path d="M35.8387 45.6129H39.0968V48.871H35.8387V45.6129Z" fill="#3498DB"/>
<path d="M13.0323 45.6129H32.5806V48.871H13.0323V45.6129Z" fill="#3498DB"/>
<path d="M96.1129 26.0645H54.2712C52.6226 22.6093 49.2929 20.1088 45.3409 19.6364C44.6909 17.6994 42.8794 16.2903 40.7258 16.2903H39.0968V13.0323C39.0968 5.8466 33.2502 0 26.0645 0C18.8789 0 13.0323 5.8466 13.0323 13.0323V16.2903H11.4032C8.70881 16.2903 6.51613 18.483 6.51613 21.1774V87.9677H4.8871C2.19268 87.9677 0 90.1604 0 92.8548V96.1129C0 98.8073 2.19268 101 4.8871 101H47.2419C49.9364 101 52.129 98.8073 52.129 96.1129V92.8548C52.129 90.1604 49.9364 87.9677 47.2419 87.9677H45.6129V42.2245C46.877 42.0421 48.076 41.656 49.1723 41.094L77.9964 69.9181C78.9494 70.871 80.2021 71.3467 81.4516 71.3467C82.7043 71.3467 83.9538 70.871 84.9068 69.9197C85.8305 68.996 86.3387 67.7694 86.3387 66.4629C86.3387 65.158 85.8305 63.9297 84.9068 63.0077L57.7378 35.8387H96.1129C98.8073 35.8387 101 33.646 101 30.9516C101 28.2572 98.8073 26.0645 96.1129 26.0645ZM16.2903 13.0323C16.2903 7.64179 20.674 3.25806 26.0645 3.25806C31.455 3.25806 35.8387 7.64179 35.8387 13.0323V16.2903H26.0645H16.2903V13.0323ZM48.871 92.8548V96.1129C48.871 97.0121 48.1412 97.7419 47.2419 97.7419H4.8871C3.98787 97.7419 3.25806 97.0121 3.25806 96.1129V92.8548C3.25806 91.9556 3.98787 91.2258 4.8871 91.2258H47.2419C48.1412 91.2258 48.871 91.9556 48.871 92.8548ZM9.77419 87.9677V21.1774C9.77419 20.2782 10.504 19.5484 11.4032 19.5484H40.7258C41.625 19.5484 42.3548 20.2782 42.3548 21.1774V87.9677H9.77419ZM45.6129 22.971C49.3255 23.7285 52.129 27.0175 52.129 30.9516C52.129 34.8857 49.3255 38.1747 45.6129 38.9322V22.971ZM83.0806 66.4629C83.0806 66.8995 82.9112 67.3067 82.6033 67.6146C81.9664 68.2516 80.9368 68.2516 80.2999 67.6146L51.8619 39.1766C52.6536 38.4175 53.3345 37.5476 53.8835 36.5897L82.605 65.3112C82.9112 65.619 83.0806 66.0279 83.0806 66.4629ZM96.1129 32.5806H55.2568C55.3333 32.0463 55.3871 31.5055 55.3871 30.9516C55.3871 30.3977 55.3333 29.8569 55.2568 29.3226H96.1129C97.0121 29.3226 97.7419 30.0524 97.7419 30.9516C97.7419 31.8508 97.0121 32.5806 96.1129 32.5806Z" fill="#3498DB"/>
</svg>
