<svg width="93" height="96" viewBox="0 0 93 96" fill="none" xmlns="http://www.w3.org/2000/svg">
    <path fill-rule="evenodd" clip-rule="evenodd" d="M11.7327 0C9.85537 0 8.23064 1.30556 7.82649 3.13886L0.0953963 38.2079C-0.454918 40.7042 1.44537 43.0691 4.0016 43.0691H20.6861V55C20.6861 56.1046 21.5815 57 22.6861 57C23.7906 57 24.6861 56.1046 24.6861 55V43.0691H67.6982V77.5V79.5H69.6982H70.171C75.3554 79.5 78.8851 84.7564 76.9231 89.5552C76.5162 90.5504 75.5478 91.2007 74.4727 91.2007H45.6538H17.3534C15.975 91.2007 14.7866 90.2318 14.5088 88.8817C13.5124 84.0382 17.2121 79.5 22.157 79.5H22.6861H24.6861V77.5V62.5C24.6861 61.3954 23.7906 60.5 22.6861 60.5C21.5815 60.5 20.6861 61.3954 20.6861 62.5V75.5899C13.9636 76.4184 9.18466 82.8519 10.5909 89.6876C11.2511 92.8973 14.0766 95.2007 17.3534 95.2007H45.6538H74.4727C77.1723 95.2007 79.6039 93.5679 80.6256 91.069C83.4666 84.1204 78.8711 76.5522 71.6982 75.6002V43.0691H88.0681C90.5955 43.0691 92.4895 40.7542 91.9888 38.2768L84.902 3.20769C84.5249 1.3417 82.885 0 80.9812 0H11.7327ZM11.7327 4L80.9812 4L88.0681 39.0691L69.6982 39.0691H22.6861H4.0016L11.7327 4ZM15.018 31L19.3341 12H72.9776L77.0399 31H15.018ZM18.5358 8C17.1349 8 15.9206 8.96943 15.6103 10.3354L10.8398 31.3354C10.4134 33.2127 11.8403 35 13.7653 35H78.2763C80.1856 35 81.6092 33.2399 81.21 31.3728L76.7201 10.3728C76.4243 8.98891 75.2016 8 73.7864 8H18.5358Z" fill="#3498DB"/>
</svg>
