<svg width="40" height="35" viewBox="0 0 40 35" fill="none" xmlns="http://www.w3.org/2000/svg">
    <path d="M6.25 20C6.25 18.6172 7.36953 17.5 8.75 17.5C10.1328 17.5 11.25 18.6172 11.25 20C11.25 21.3828 10.1328 22.5 8.75 22.5C7.36953 22.5 6.25 21.3828 6.25 20ZM33.75 20C33.75 21.3828 32.6328 22.5 31.25 22.5C29.8672 22.5 28.75 21.3828 28.75 20C28.75 18.6172 29.8672 17.5 31.25 17.5C32.6328 17.5 33.75 18.6172 33.75 20ZM3.75781 12.25L6.43359 4.60391C7.39844 1.84609 10 0 12.9219 0H27.0781C29.9297 0 32.6016 1.84609 33.5703 4.60391L36.2422 12.25C38.4844 13.5469 40 15.9688 40 18.75V33.125C40 34.1641 39.1641 35 38.125 35C37.0859 35 36.25 34.1641 36.25 33.125V28.75H3.75V33.125C3.75 34.1641 2.91016 35 1.875 35C0.839844 35 0 34.1641 0 33.125V18.75C0 15.9688 1.51172 13.5469 3.75781 12.25ZM8.07812 11.25H31.9219L30.0234 5.84375C29.5859 4.58906 28.4062 3.75 27.0781 3.75H12.9219C11.5938 3.75 10.4141 4.58906 9.97656 5.84375L8.07812 11.25ZM32.5 15H7.5C5.42891 15 3.75 16.6797 3.75 18.75V25H36.25V18.75C36.25 16.6797 34.5703 15 32.5 15Z" fill="#3498DB"/>
</svg>
