<svg width="126" height="100" viewBox="0 0 126 100" fill="none" xmlns="http://www.w3.org/2000/svg">
<path d="M89.6961 51.846H83.8979C82.9612 51.846 82.202 52.6185 82.202 53.5712C82.202 54.5239 82.9612 55.2964 83.8979 55.2964H89.6961C90.633 55.2964 91.392 54.5239 91.392 53.5712C91.392 52.6185 90.6328 51.846 89.6961 51.846Z" fill="#3498DB"/>
<path d="M124.305 5.00882H99.2875V1.72524C99.2875 1.1893 99.0425 0.683638 98.6247 0.357272C98.2066 0.0307101 97.6634 -0.0800318 97.1544 0.0584444L63.2589 9.25354C62.5165 9.45491 62 10.1389 62 10.9205V16.493C62 17.4457 62.7591 18.2182 63.6959 18.2182C64.6326 18.2182 65.3917 17.4457 65.3917 16.493V12.2461L95.8955 3.97094V96.1701L65.3917 89.9639V22.3078C65.3917 21.3551 64.6326 20.5826 63.6959 20.5826C62.7591 20.5826 62 21.3551 62 22.3078V91.3783C62 92.2008 62.5704 92.9088 63.3633 93.0699L97.2589 99.9664C97.3693 99.9889 97.4804 100 97.5914 100C97.9802 100 98.3607 99.8641 98.6666 99.609C99.0594 99.2813 99.2873 98.7916 99.2873 98.2748V94.9916H114.916C115.853 94.9916 116.612 94.2192 116.612 93.2664C116.612 92.3137 115.853 91.5412 114.916 91.5412H99.2873V86.6188H116.073C117.01 86.6188 117.769 85.8463 117.769 84.8936V15.107C117.769 14.1543 117.01 13.3819 116.073 13.3819H99.2873V8.45921H122.608V91.5405H120.189C119.252 91.5405 118.493 92.3129 118.493 93.2656C118.493 94.2184 119.252 94.9908 120.189 94.9908H124.304C125.241 94.9908 126 94.2184 126 93.2656V6.73401C126 5.78128 125.241 5.00882 124.305 5.00882ZM114.378 16.8322V83.1678H99.2877V16.8322H114.378Z" fill="#3498DB"/>
<path d="M0.75 49.5174L0.75 49.5173L0.750111 49.5076C0.750044 49.5053 0.75 49.5028 0.75 49.5C0.75 49.4962 0.750086 49.4927 0.750179 49.49C0.752817 40.2306 4.29649 31.5142 10.7312 24.9466C17.1721 18.3723 25.7264 14.75 34.8165 14.75H52.6616C53.5437 14.75 54.25 15.4778 54.25 16.3654V34.5711C54.25 35.4587 53.5437 36.1865 52.6616 36.1865H34.8165C33.0553 36.1865 31.3481 36.5381 29.7412 37.2314C28.9293 37.5819 27.9972 37.1925 27.6572 36.3721C27.3179 35.5542 27.6912 34.6064 28.5002 34.2574M0.75 49.5174L28.5993 34.4869M0.75 49.5174C0.754853 59.6427 5.18935 69.2677 12.9148 75.9249M0.75 49.5174L12.9148 75.9249M28.5002 34.2574L28.5993 34.4869M28.5002 34.2574C28.5002 34.2574 28.5002 34.2574 28.5002 34.2574L28.5993 34.4869M28.5002 34.2574C30.5018 33.3936 32.6273 32.9558 34.8165 32.9558H40.1877M28.5993 34.4869C30.5694 33.6367 32.6612 33.2058 34.8165 33.2058H40.1877V32.9558M40.1877 32.9558H40.4377V17.9809H40.1877M40.1877 32.9558V17.9809M40.1877 17.9809V17.7309H34.8165C26.51 17.7309 18.6922 21.0412 12.8029 27.0519M40.1877 17.9809H34.8165C26.5781 17.9809 18.8244 21.2635 12.9815 27.2268M12.9815 27.2268L12.8029 27.0519M12.9815 27.2268C12.9815 27.2268 12.9815 27.2268 12.9815 27.2268L12.8029 27.0519M12.9815 27.2268C7.51766 32.8038 4.35298 40.0867 3.96816 47.8846M12.8029 27.0519C7.29308 32.6758 4.10294 40.0214 3.71786 47.8846H3.96816M3.96816 47.8846H18.6747M3.96816 47.8846C3.96405 47.9678 3.96026 48.0512 3.95678 48.1346H18.9035M18.6747 47.8846L27.8881 36.2764C28.176 36.9709 28.9613 37.2957 29.6421 37.0019C31.2805 36.295 33.0215 35.9365 34.8165 35.9365H52.6616C53.4009 35.9365 54 35.3253 54 34.5711V16.3654C54 15.6112 53.4009 15 52.6616 15H34.8165C25.7945 15 17.3044 18.5946 10.9098 25.1215C4.52013 31.6432 1.00161 40.2984 1.00018 49.4947L1 49.5L1.00018 49.5033L1 49.5173C1.00482 59.5693 5.40721 69.1255 13.0781 75.7357C13.6399 76.2205 14.4854 76.1518 14.9642 75.5736C15.4412 74.9974 15.37 74.1361 14.8053 73.6495C8.14627 67.9114 4.1636 59.7709 3.72086 51.1154H3.97119M18.6747 47.8846H18.9035V48.1346M18.6747 47.8846C18.6674 47.961 18.6606 48.0375 18.6543 48.1142L18.9035 48.1346M18.6747 47.8846C19.0126 44.3481 20.4529 41.0146 22.8205 38.3634L22.8205 38.3633C23.4113 37.7021 24.4186 37.6534 25.0678 38.257M18.6747 47.8846L25.0678 38.257M18.9035 48.1346C19.1956 44.5664 20.625 41.1972 23.007 38.5299C23.5048 37.9726 24.3514 37.9322 24.8976 38.4402M24.8976 38.4402C25.4441 38.9479 25.4835 39.8116 24.9856 40.3691M24.8976 38.4402L25.0679 38.2571M24.8976 38.4402L25.0678 38.257M24.9856 40.3691C22.7521 42.8705 21.5219 46.1132 21.5219 49.5C21.5219 56.9788 27.4859 63.0633 34.8165 63.0633H52.6616C53.4009 63.0633 54 63.6745 54 64.4288V82.6346C54 83.3888 53.4009 84 52.6616 84H35.0974C29.2958 84 23.5414 82.4592 18.4566 79.5441C17.8122 79.1749 17.5835 78.3424 17.9455 77.685M24.9856 40.3691L25.1721 40.5356M24.9856 40.3691L25.1721 40.5356C25.1721 40.5356 25.1721 40.5356 25.1721 40.5356M17.9455 77.685C18.3074 77.0275 19.1237 76.7941 19.7679 77.1635C24.4533 79.8494 29.754 81.2691 35.0974 81.2691H40.1877V81.0191M17.9455 77.685L17.7266 77.5643M17.9455 77.685L17.7265 77.5644C17.7265 77.5644 17.7266 77.5644 17.7266 77.5643M40.1877 81.0191H40.4377V66.0442H40.1877M40.1877 81.0191V66.0442M40.1877 81.0191H35.0974C29.7981 81.0191 24.5402 79.6111 19.8922 76.9467C19.1247 76.5065 18.1547 76.7867 17.7266 77.5643M40.1877 66.0442V65.7942H34.8165C26.4605 65.7942 19.5839 59.2135 18.9017 50.8654M40.1877 66.0442H34.8165C26.4019 66.0442 19.4714 59.4787 18.6729 51.1154M18.9017 50.8654H3.9593C3.96294 50.9488 3.9669 51.0322 3.97119 51.1154M18.9017 50.8654L18.6525 50.8858C18.6588 50.9625 18.6656 51.039 18.6729 51.1154M18.9017 50.8654V51.1154H18.6729M3.97119 51.1154C4.41368 59.6975 8.36414 67.7691 14.9685 73.4601L14.9686 73.4601C15.6369 74.0361 15.7201 75.0525 15.1567 75.733L15.1567 75.7331C14.5888 76.4189 13.5828 76.5015 12.9148 75.9249M3.97119 51.1154H18.6729M12.9148 75.9249L25.0679 38.2571M17.7266 77.5643C17.2999 78.3391 17.5674 79.3227 18.3323 79.761M18.3323 79.761C23.4545 82.6976 29.2517 84.25 35.0974 84.25H52.6616C53.5437 84.25 54.25 83.5222 54.25 82.6346V64.4288C54.25 63.5412 53.5437 62.8133 52.6616 62.8133H34.8165C27.6287 62.8133 21.7719 56.8454 21.7719 49.5C21.7719 46.1739 22.9799 42.9908 25.1721 40.5356M18.3323 79.761L18.4514 79.5533L18.3323 79.761C18.3323 79.761 18.3323 79.761 18.3323 79.761ZM25.1721 40.5356C25.7603 39.8769 25.7143 38.8578 25.0679 38.2571M25.0679 38.2571L25.0678 38.257M51.0732 81.0191H43.3645V66.0442H51.0732V81.0191ZM51.0732 32.9558H43.3645V17.9809H51.0732V32.9558Z" fill="#3498DB" stroke="#3498DB" stroke-width="0.5"/>
</svg>
