<svg width="131" height="44" viewBox="0 0 131 44" fill="none" xmlns="http://www.w3.org/2000/svg">
    <path d="M130.999 25.1282L131 18.8606C131 17.9993 130.233 17.2369 129.366 17.237L110.444 17.2391C109.54 17.2392 108.81 17.9652 108.81 18.863L108.809 25.1305C108.808 25.5611 108.981 25.9745 109.287 26.2787C109.593 26.583 110.008 26.7541 110.443 26.7541L129.365 26.752C130.269 26.752 130.999 26.0262 130.999 25.1282ZM112.077 23.5065L112.077 20.4865L127.732 20.4848L127.732 23.5048L112.077 23.5065Z" fill="white"/>
    <path d="M112.075 26.5853L112.077 17.4078C112.077 14.7207 109.879 12.5369 107.175 12.5372L104.135 12.5363C103.702 12.5353 103.287 12.7063 102.98 13.0118C102.674 13.3161 102.501 13.7285 102.501 14.1602L102.5 29.8327C102.498 30.2633 102.672 30.6767 102.978 30.9809C103.285 31.2864 103.701 31.4562 104.135 31.4575L107.173 31.4571C109.877 31.4567 112.075 29.2724 112.075 26.5853ZM107.174 28.2072L105.768 28.2074L105.771 15.7836L107.176 15.7834C108.075 15.7856 108.81 16.5113 108.81 17.407L108.808 26.5833C108.807 27.479 108.075 28.2071 107.174 28.2072Z" fill="white"/>
    <path d="M105.768 31.0024L105.77 12.9875C105.771 9.51715 104.412 6.25597 101.943 3.80221C99.4751 1.34966 96.1936 -0.000386019 92.7016 8.27932e-08L78.9072 0.00152162C78.4739 0.000492919 78.0591 0.171578 77.7517 0.477088C77.4443 0.782597 77.2732 1.19373 77.2731 1.62543L77.2675 42.3718C77.2674 42.8197 77.4501 43.2262 77.7458 43.5201C78.0416 43.8141 78.4505 43.9954 78.9012 43.9954L92.6956 43.9939C99.9025 43.992 105.767 38.1635 105.768 31.0024ZM92.6959 40.7464L80.5354 40.7477L80.5406 3.24867L92.7 3.2484C95.3183 3.24811 97.7795 4.26062 99.6305 6.10013C101.483 7.94072 102.501 10.3866 102.501 12.9886L102.499 31.0036C102.498 36.3735 98.1001 40.7446 92.6959 40.7464Z" fill="white"/>
    <path d="M22.1906 25.139L22.1913 18.8715C22.1924 18.4409 22.0191 18.0275 21.713 17.7233C21.4069 17.419 20.992 17.2479 20.5576 17.248L1.63477 17.2499C0.731165 17.2501 0.000803081 17.976 0.000702614 18.8738L5.50686e-06 25.1413C-0.00112598 25.5719 0.172152 25.9853 0.478284 26.2896C0.785634 26.595 1.20038 26.766 1.6337 26.7649L20.5564 26.7628C21.46 26.7628 22.1904 26.037 22.1906 25.139ZM3.26808 23.5174L3.26841 20.4973L18.9234 20.4956L18.923 23.5156L3.26808 23.5174Z" fill="white"/>
    <path d="M28.4956 29.8407L28.4974 14.1684C28.4985 13.7377 28.3253 13.3244 28.0191 13.0201C27.713 12.7159 27.2981 12.5448 26.8637 12.5448L23.8248 12.5452C21.1209 12.5455 18.9229 14.7298 18.9226 17.4169L18.9216 26.5943C18.9214 27.9379 19.4713 29.1552 20.3586 30.0369C21.2459 30.9186 22.4707 31.4651 23.8216 31.4639L26.8617 31.4648C27.295 31.4658 27.7098 31.2947 28.0172 30.9892C28.3233 30.6848 28.4955 30.2726 28.4956 29.8407ZM23.8264 28.2187C22.9274 28.2166 22.1926 27.4909 22.1927 26.5952L22.1938 17.4177C22.1939 16.522 22.9265 15.7939 23.8278 15.7938L25.2329 15.7937L25.2315 28.2186L23.8264 28.2187Z" fill="white"/>
    <path d="M56.8829 42.373L56.8875 1.62769C56.8875 0.766436 56.1204 0.00404425 55.2538 0.00414001L38.3048 0.00601028C31.0979 0.00788342 25.233 5.83638 25.2322 12.9974L25.2302 31.0124C25.2298 34.4827 26.5883 37.7439 29.0574 40.1976C31.5265 42.6514 34.808 44.0015 38.3011 44L55.249 43.997C56.1524 43.9967 56.8828 43.2709 56.8829 42.373ZM38.2989 40.7524C35.6806 40.7527 33.2195 39.7402 31.3684 37.9007C29.5164 36.0601 28.4975 33.6142 28.4978 31.0122L28.4998 12.9972C28.5004 7.62756 32.8988 3.25649 38.3031 3.25481L53.6182 3.25312L53.6128 40.7498L38.2989 40.7524Z" fill="white"/>
    <path d="M74.2329 11.0328C74.232 8.48928 72.0033 6.27207 69.445 6.27464L55.2518 6.275C54.8185 6.27397 54.4037 6.44505 54.0963 6.75056C53.7889 7.05607 53.6178 7.4672 53.6178 7.89891L53.6171 14.1664C53.617 14.6143 53.7997 15.0208 54.0954 15.3146C54.3911 15.6085 54.8001 15.79 55.2531 15.7922L69.445 15.7907C70.723 15.7905 71.9261 15.2954 72.8309 14.3963C73.7357 13.4971 74.2328 12.3029 74.2329 11.0328ZM69.4432 12.5389L56.8852 12.5403L56.8855 9.52026L69.4436 9.51887C70.2559 9.51757 70.9631 10.2204 70.9616 11.0299C70.9616 11.4318 70.8043 11.8109 70.5178 12.0956C70.2301 12.3815 69.85 12.5389 69.4432 12.5389Z" fill="white"/>
    <path d="M74.2305 32.9708C74.2308 30.3456 72.0851 28.2111 69.4426 28.2126L55.2506 28.2142C54.8173 28.2132 54.4025 28.3842 54.0951 28.6898C53.7877 28.9953 53.6166 29.4064 53.6165 29.8381L53.6158 36.1056C53.6158 36.5535 53.7984 36.96 54.0941 37.2538C54.39 37.5478 54.7978 37.7303 55.2485 37.7302L69.4416 37.7299C72.0819 37.7285 74.2291 35.5946 74.2305 32.9708ZM69.4418 34.4801L56.8838 34.4815L56.8841 31.4615L69.4422 31.4601C70.2558 31.46 70.9628 32.1626 70.9615 32.9699C70.9614 33.8013 70.2784 34.48 69.4418 34.4801Z" fill="white"/>
</svg>
