<svg width="115" height="61" viewBox="0 0 115 61" fill="none" xmlns="http://www.w3.org/2000/svg">
<path d="M109.125 0H5.87487C2.63549 0 0 2.63755 0 5.87889V55.1211C0 58.3627 2.63549 61 5.87487 61H109.125C112.365 61 115 58.3627 115 55.1211V5.87889C115 2.63729 112.365 0 109.125 0ZM110.886 55.1211C110.886 56.0926 110.096 56.8831 109.125 56.8831H5.87487C4.90402 56.8831 4.11403 56.0926 4.11403 55.1211V47.2772H110.886V55.1211ZM110.886 43.1603H4.11403V17.8397H110.886V43.1603ZM110.886 13.7228H4.11403V5.87889C4.11403 4.90738 4.90402 4.11685 5.87487 4.11685H109.125C110.096 4.11685 110.886 4.90738 110.886 5.87889V13.7228Z" fill="#3498DB"/>
<path d="M16.6957 20.3521H11.8383L8.45924 41.4853H11.5065L12.0797 37.6512H16.1526L16.7258 41.4853H20.0748L16.6957 20.3521ZM12.502 34.7829L14.1011 24.0955L15.7002 34.7829H12.502Z" fill="#3498DB"/>
<path d="M30.5433 30.2238C32.0216 29.5295 32.6853 28.1407 32.6853 25.9669V25.212C32.6853 21.9516 31.207 20.3513 27.7676 20.3513H22.7595V41.4846H27.9789C31.2974 41.4848 33.0171 39.7338 33.0171 36.4733V34.7522C33.0174 32.5183 32.3236 30.9181 30.5433 30.2238ZM26.0783 23.3708H27.6775C28.8541 23.3708 29.367 24.0349 29.367 25.5446V26.7218C29.367 28.4125 28.6127 28.9562 27.3758 28.9562H26.0783V23.3708ZM29.6988 36.3831C29.6988 37.9529 29.0955 38.4662 27.9791 38.4662H26.0783V31.9751H27.5566C29.0651 31.9751 29.6986 32.5789 29.6986 34.5413V36.3831H29.6988Z" fill="#3498DB"/>
<path d="M45.7788 27.4766V25.4237C45.7788 22.0423 44.0893 20.1103 40.831 20.1103C37.5728 20.1103 35.8832 22.0426 35.8832 25.4237V36.413C35.8832 39.7944 37.5725 41.7264 40.831 41.7264C44.0893 41.7264 45.7788 39.7941 45.7788 36.413V33.6055H42.6411V36.6244C42.6411 38.1339 41.9775 38.677 40.9215 38.677C39.8654 38.677 39.2018 38.1339 39.2018 36.6244V25.2123C39.2018 23.7028 39.8654 23.1292 40.9215 23.1292C41.9775 23.1292 42.6411 23.7028 42.6411 25.2123V27.4766H45.7788Z" fill="#3498DB"/>
<path d="M60.6518 29.4084H54.6179V32.4273H60.6518V29.4084Z" fill="#3498DB"/>
<path d="M75.5856 20.3519C75.0727 21.7708 74.4995 23.0086 71.9348 23.0086V25.3634H74.4995V41.4851H77.818V20.3519H75.5856Z" fill="#3498DB"/>
<path d="M86.2956 38.4659C86.2655 38.3148 86.2655 38.164 86.2655 38.0129C86.2655 34.5411 92.8729 32.0653 92.8729 25.4237C92.8729 22.0423 91.1834 20.1103 87.9251 20.1103C84.6669 20.1103 82.9773 22.0426 82.9773 25.4237V27.4766H86.1147V25.2123C86.1147 23.7028 86.7784 23.1292 87.8347 23.1292C88.8907 23.1292 89.5544 23.6425 89.5544 25.5444C89.5544 31.6428 82.9776 32.6694 82.9776 38.8884V41.4848H92.5712V38.4659H86.2956Z" fill="#3498DB"/>
<path d="M105.785 25.9672V25.4237C105.785 22.0423 104.096 20.1103 100.837 20.1103C97.579 20.1103 95.8895 22.0426 95.8895 25.4237V26.5709H99.0269V25.2123C99.0269 23.7028 99.6908 23.1292 100.747 23.1292C101.803 23.1292 102.467 23.6425 102.467 25.5444V26.7215C102.467 28.4122 101.712 28.9559 100.475 28.9559H99.1784V31.9748H100.294C101.803 31.9748 102.467 32.6998 102.467 34.6617V36.3222C102.467 38.1939 101.803 38.7072 100.747 38.7072C99.6911 38.7072 99.0272 38.1336 99.0272 36.6241V34.6617H95.8898V36.4127C95.8898 39.7941 97.5793 41.7261 100.838 41.7261C104.096 41.7261 105.785 39.7939 105.785 36.4127V34.7522C105.785 32.6088 105.122 31.0387 103.462 30.3143C105.061 29.6505 105.785 28.2315 105.785 25.9672Z" fill="#3498DB"/>
<path d="M24.1962 11.2109C25.4408 11.2109 26.4497 10.2013 26.4497 8.95578C26.4497 7.7103 25.4408 6.70064 24.1962 6.70064C22.9515 6.70064 21.9426 7.7103 21.9426 8.95578C21.9426 10.2013 22.9515 11.2109 24.1962 11.2109Z" fill="#3498DB"/>
<path d="M24.1962 54.3447C25.4408 54.3447 26.4497 53.3351 26.4497 52.0896C26.4497 50.8441 25.4408 49.8345 24.1962 49.8345C22.9515 49.8345 21.9426 50.8441 21.9426 52.0896C21.9426 53.3351 22.9515 54.3447 24.1962 54.3447Z" fill="#3498DB"/>
<path d="M90.8051 11.2109C92.0498 11.2109 93.0588 10.2013 93.0588 8.95578C93.0588 7.7103 92.0498 6.70064 90.8051 6.70064C89.5605 6.70064 88.5516 7.7103 88.5516 8.95578C88.5516 10.2013 89.5605 11.2109 90.8051 11.2109Z" fill="#3498DB"/>
<path d="M90.8051 54.3447C92.0498 54.3447 93.0588 53.3351 93.0588 52.0896C93.0588 50.8441 92.0498 49.8345 90.8051 49.8345C89.5605 49.8345 88.5516 50.8441 88.5516 52.0896C88.5516 53.3351 89.5605 54.3447 90.8051 54.3447Z" fill="#3498DB"/>
</svg>
