<svg width="35" height="35" viewBox="0 0 35 35" fill="none" xmlns="http://www.w3.org/2000/svg">
    <path d="M17.5 19.6875C22.9366 19.6875 27.3437 15.2804 27.3437 9.84375C27.3437 4.40713 22.9366 0 17.5 0C12.0641 0 7.65625 4.40713 7.65625 9.84375C7.65625 15.2804 12.0654 19.6875 17.5 19.6875ZM17.5 2.1875C21.7219 2.1875 25.1562 5.62188 25.1562 9.84375C25.1562 14.0684 21.7246 17.5 17.5 17.5C13.2754 17.5 9.84375 14.0684 9.84375 9.84375C9.84375 5.62188 13.2754 2.1875 17.5 2.1875ZM24.001 21.875H10.9375C4.89726 21.875 0 26.7716 0 32.8125C0 34.0204 0.97959 35 2.12598 35H32.8125C34.0204 35 34.9385 34.0204 34.9385 32.8125C35 26.7695 30.1055 21.875 24.001 21.875ZM2.1875 32.8125C2.1875 27.9877 6.11269 24.0625 10.9375 24.0625H24.001C28.8887 24.0625 32.8125 27.9863 32.8125 32.8125H2.1875Z" fill="black"/>
</svg>
