<svg width="110" height="73" viewBox="0 0 110 73" fill="none" xmlns="http://www.w3.org/2000/svg">
<path d="M103.018 15.029H30.078C30.0778 6.74198 23.3315 0 15.039 0C6.7465 0 0 6.74241 0 15.0294V70.8529C0 72.0388 0.961852 73 2.14843 73H27.9296C29.1162 73 30.078 72.0388 30.078 70.8529V28.9849H103.018C106.868 28.9849 110 25.8545 110 22.0069C110 18.1594 106.868 15.029 103.018 15.029ZM25.7811 24.6912H17.6975C16.5109 24.6912 15.549 25.6524 15.549 26.8382C15.549 28.0241 16.5109 28.9853 17.6975 28.9853H25.7811V68.7063H4.29686V63.959H12.3805C13.5671 63.959 14.529 62.9977 14.529 61.8119C14.529 60.6261 13.5671 59.6648 12.3805 59.6648H4.29686V15.0296C4.29686 9.11019 9.11578 4.29455 15.039 4.29455C20.9622 4.29455 25.7811 9.1104 25.7811 15.0296V24.6912ZM33.485 24.6907H30.078V19.3231H38.8561L33.485 24.6907ZM50.6726 24.6907H39.562L44.9331 19.3231H56.0437L50.6726 24.6907ZM67.8601 24.6907H56.7495L62.1205 19.3231H73.2311L67.8601 24.6907ZM85.0475 24.6907H73.9369L79.308 19.3231H90.4186L85.0475 24.6907ZM103.018 24.6907H91.1243L96.4954 19.3231H103.018C104.499 19.3231 105.703 20.527 105.703 22.0069C105.703 23.4869 104.499 24.6907 103.018 24.6907Z" fill="#3498DB"/>
<path d="M15.039 8.58824C11.4851 8.58824 8.59372 11.4777 8.59372 15.0294C8.59372 18.5811 11.4851 21.4708 15.039 21.4708C18.5929 21.4706 21.4845 18.5811 21.4845 15.0294C21.4845 11.4777 18.5929 8.58824 15.039 8.58824ZM15.039 17.1765C13.8544 17.1765 12.8906 16.2133 12.8906 15.0292C12.8906 13.8453 13.8544 12.8821 15.039 12.8821C16.2239 12.8821 17.1876 13.8453 17.1876 15.0292C17.1876 16.2135 16.2239 17.1765 15.039 17.1765Z" fill="#3498DB"/>
<path d="M11.0981 24.6916H11.0431C9.85656 24.6916 8.89471 25.6528 8.89471 26.8387C8.89471 28.0245 9.85656 28.9857 11.0431 28.9857H11.0981C12.2847 28.9857 13.2466 28.0245 13.2466 26.8387C13.2466 25.6528 12.2847 24.6916 11.0981 24.6916Z" fill="#3498DB"/>
<path d="M19.0349 59.6653H18.9799C17.7933 59.6653 16.8314 60.6265 16.8314 61.8123C16.8314 62.9981 17.7933 63.9594 18.9799 63.9594H19.0349C20.2214 63.9594 21.1833 62.9981 21.1833 61.8123C21.1833 60.6265 20.2214 59.6653 19.0349 59.6653Z" fill="#3498DB"/>
</svg>
