<?xml version="1.0" standalone="no"?>
<!DOCTYPE svg PUBLIC "-//W3C//DTD SVG 20010904//EN"
 "http://www.w3.org/TR/2001/REC-SVG-20010904/DTD/svg10.dtd">
<svg version="1.0" xmlns="http://www.w3.org/2000/svg"
 width="512.000000pt" height="512.000000pt" viewBox="0 0 512.000000 512.000000"
 preserveAspectRatio="xMidYMid meet">
<metadata>
Created by potrace 1.16, written by Peter Selinger 2001-2019
</metadata>
<g transform="translate(0.000000,512.000000) scale(0.100000,-0.100000)"
fill="#000000" stroke="none">
<path d="M4695 5103 c-46 -13 -84 -48 -475 -438 l-425 -424 -55 36 c-147 95
-295 143 -440 143 -120 0 -200 -19 -315 -74 -162 -78 -248 -148 -571 -471
-166 -165 -311 -316 -323 -335 -50 -83 -19 -156 133 -307 144 -143 193 -165
284 -128 24 10 141 119 337 314 316 313 326 321 415 321 l32 0 -59 -64 c-147
-156 -145 -284 4 -434 147 -146 283 -150 436 -12 l57 52 0 -32 c0 -68 -27
-101 -330 -405 -164 -165 -304 -313 -309 -328 -30 -79 1 -141 136 -279 59 -59
126 -117 148 -128 46 -22 99 -26 142 -9 37 14 704 678 755 752 55 81 94 168
119 266 18 71 21 105 17 215 -5 145 -20 198 -62 217 -33 16 -78 -1 -94 -34
-11 -23 -11 -38 4 -97 44 -184 -22 -372 -211 -599 -39 -47 -157 -167 -261
-266 -104 -99 -219 -210 -255 -247 -36 -37 -71 -68 -79 -68 -14 0 -196 174
-212 204 -9 16 30 58 285 315 350 351 351 353 352 506 0 55 -4 114 -8 131 -9
30 -3 36 300 329 582 563 806 797 905 945 49 73 50 77 44 128 -9 77 -38 127
-125 213 -63 63 -86 80 -131 93 -65 19 -99 19 -165 -1z m128 -147 c40 -16 114
-95 133 -142 8 -19 12 -45 9 -57 -4 -13 -333 -351 -733 -750 l-727 -727 -43 0
c-39 0 -50 6 -104 57 -73 69 -91 106 -78 154 8 26 180 204 718 742 389 390
721 715 737 723 38 17 48 17 88 0z m-1364 -712 c67 -18 166 -63 201 -92 l25
-21 -135 -135 -135 -136 -50 16 c-74 23 -185 15 -260 -20 -52 -23 -102 -69
-357 -323 -163 -162 -301 -294 -306 -292 -17 7 -222 205 -222 215 0 5 154 163
343 350 243 242 358 350 397 372 153 85 333 109 499 66z"/>
<path d="M1825 4235 c-14 -13 -25 -30 -25 -37 0 -7 16 -75 36 -151 34 -126 40
-139 66 -153 47 -24 108 6 108 54 0 50 -62 267 -83 290 -27 30 -71 29 -102 -3z"/>
<path d="M1289 3931 c-16 -13 -23 -29 -23 -55 0 -33 10 -47 104 -141 88 -88
110 -105 136 -105 38 0 74 36 74 75 0 24 -21 50 -108 137 -116 116 -137 126
-183 89z"/>
<path d="M930 3418 c-25 -27 -26 -69 -2 -96 9 -11 74 -41 144 -67 115 -43 131
-46 157 -35 16 6 35 24 41 40 19 45 -8 84 -72 108 -29 11 -84 32 -122 46 -84
32 -119 33 -146 4z"/>
<path d="M1580 3029 c-19 -12 -170 -157 -335 -323 -323 -323 -393 -409 -471
-571 -54 -114 -74 -195 -74 -311 0 -146 49 -298 143 -444 l36 -55 -199 -201
c-217 -218 -225 -230 -175 -279 53 -54 37 -67 585 480 278 277 518 509 533
515 55 20 120 -15 182 -100 26 -35 35 -58 35 -86 0 -38 -15 -54 -727 -766
-401 -399 -738 -729 -751 -733 -33 -10 -102 28 -156 85 -84 89 -76 120 71 271
63 65 103 115 103 127 0 35 -43 75 -80 75 -29 0 -46 -13 -140 -109 -125 -128
-155 -180 -155 -269 0 -80 23 -124 109 -211 116 -117 202 -146 298 -101 110
52 215 150 789 741 l117 119 72 -46 c246 -157 482 -178 725 -62 167 79 246
144 578 479 169 171 314 325 322 343 21 44 19 97 -6 146 -29 57 -224 255 -274
278 -45 21 -91 24 -132 8 -15 -5 -163 -145 -328 -309 -304 -303 -337 -330
-406 -330 l-31 0 53 58 c140 152 134 291 -17 439 -84 82 -132 107 -209 107
-78 1 -137 -28 -221 -107 l-64 -59 0 32 c0 89 8 99 321 415 195 196 304 313
314 337 37 89 14 141 -118 276 -154 157 -232 192 -317 141z m198 -233 c56 -57
102 -109 102 -117 0 -7 -132 -146 -294 -308 -253 -254 -299 -304 -322 -356
-35 -75 -43 -186 -20 -260 l16 -50 -133 -132 c-72 -73 -135 -133 -139 -133
-13 0 -61 83 -89 156 -72 183 -51 412 52 577 33 54 695 727 714 727 6 0 57
-47 113 -104z m1000 -1009 c56 -56 102 -107 102 -113 0 -12 -222 -246 -450
-474 -222 -223 -369 -315 -544 -342 -129 -20 -268 12 -402 93 l-54 33 138 139
138 138 47 -11 c25 -7 79 -11 120 -9 134 7 160 26 492 359 159 159 294 290
300 290 6 0 56 -46 113 -103z"/>
</g>
</svg>
