<svg width="100" height="100" viewBox="0 0 100 100" fill="#000" xmlns="http://www.w3.org/2000/svg">
    <path d="M99.4109 28.6061L92.1932 18.979L96.0264 7.57148C96.3816 6.51374 96.1062 5.34584 95.3157 4.55878C94.5251 3.77192 93.3564 3.5026 92.3016 3.86312L80.9218 7.75741L71.2646 0.58403C70.3692 -0.0809676 69.1741 -0.179985 68.182 0.329358C67.1897 0.838506 66.5724 1.86735 66.5895 2.9831L66.7739 15.0169L56.9722 21.9913C56.0634 22.6379 55.6004 23.7447 55.7775 24.8466C55.9548 25.9483 56.7419 26.8537 57.8075 27.1822L58.5842 27.4216L0.861226 85.1848C-0.282843 86.3297 -0.282843 88.1858 0.861226 89.3306L10.6651 99.1413C11.2145 99.6911 11.9596 100 12.7365 100C13.5134 100 14.2586 99.6913 14.8078 99.1413L72.614 41.2946L72.9005 42.209C73.2342 43.2737 74.143 44.0565 75.2449 44.2282C75.3956 44.2516 75.5464 44.2631 75.6964 44.2631C76.6403 44.2631 77.5383 43.8059 78.0921 43.0181L85.0112 33.174L97.0374 33.2968C97.0476 33.297 97.0576 33.297 97.0675 33.297C98.1708 33.297 99.1818 32.6762 99.681 31.6897C100.185 30.6941 100.08 29.4986 99.4109 28.6061ZM12.7367 92.9226L7.07568 87.2575L23.7631 70.5584L29.4243 76.2233L12.7367 92.9226ZM33.567 72.0776L27.9058 66.4127L64.9184 29.374L69.3013 30.7251L70.6358 34.9829L33.567 72.0776ZM83.5311 27.2952C82.5589 27.2816 81.6599 27.7509 81.1048 28.5401L76.7147 34.7862L74.4308 27.4997C74.1422 26.5791 73.4194 25.8596 72.4982 25.5754L65.2051 23.3273L71.4244 18.9022C72.2101 18.3433 72.6708 17.4328 72.656 16.468L72.539 8.83215L78.6665 13.3838C79.4411 13.9586 80.4484 14.1158 81.3605 13.8037L88.5811 11.3328L86.1489 18.571C85.8417 19.4856 86.0038 20.4929 86.5822 21.2648L91.162 27.3734L83.5311 27.2952Z" fill="white"/>
</svg>
