<svg width="88" height="100" viewBox="0 0 88 100" fill="#000" xmlns="http://www.w3.org/2000/svg">
    <path d="M44 0C19.7686 0 0.0546875 19.7139 0.0546875 43.9453C0.0546875 46.6307 0.0546875 67.4039 0.0546875 67.7734C0.0546875 72.6197 3.99746 76.5625 8.84375 76.5625H12.2773C13.4867 79.9723 16.7432 82.4219 20.5625 82.4219C25.4088 82.4219 29.3516 78.4791 29.3516 73.6328V49.8047C29.3516 44.9584 25.4088 41.0156 20.5625 41.0156C16.7432 41.0156 13.4867 43.4652 12.2773 46.875H8.84375C7.8166 46.875 6.83105 47.0537 5.91406 47.3789V43.9453C5.91406 22.9447 22.9994 5.85938 44 5.85938C65.0006 5.85938 82.0859 22.9447 82.0859 43.9453V47.3789C81.1689 47.0537 80.1834 46.875 79.1562 46.875H75.7227C74.5133 43.4652 71.2568 41.0156 67.4375 41.0156C62.5912 41.0156 58.6484 44.9584 58.6484 49.8047V73.6328C58.6484 78.4791 62.5912 82.4219 67.4375 82.4219C68.3244 82.4219 69.1807 82.2887 69.9885 82.0432C68.8926 85.649 65.5375 88.2812 61.5781 88.2812H52.2852C51.0758 84.8715 47.8193 82.4219 44 82.4219C39.1537 82.4219 35.2109 86.3646 35.2109 91.2109C35.2109 96.0572 39.1537 100 44 100C47.8193 100 51.0758 97.5504 52.2852 94.1406H61.5781C69.6553 94.1406 76.2266 87.5693 76.2266 79.4922V76.5625H79.1562C84.0025 76.5625 87.9453 72.6197 87.9453 67.7734C87.9453 67.4094 87.9453 46.6285 87.9453 43.9453C87.9453 19.7139 68.2314 0 44 0ZM17.6328 49.8047C17.6328 48.1893 18.9471 46.875 20.5625 46.875C22.1779 46.875 23.4922 48.1893 23.4922 49.8047V73.6328C23.4922 75.2482 22.1779 76.5625 20.5625 76.5625C18.9471 76.5625 17.6328 75.2482 17.6328 73.6328V49.8047ZM8.84375 52.7344H11.7734V70.7031H8.84375C7.22832 70.7031 5.91406 69.3889 5.91406 67.7734V55.6641C5.91406 54.0486 7.22832 52.7344 8.84375 52.7344ZM44 94.1406C42.3846 94.1406 41.0703 92.8264 41.0703 91.2109C41.0703 89.5955 42.3846 88.2812 44 88.2812C45.6154 88.2812 46.9297 89.5955 46.9297 91.2109C46.9297 92.8264 45.6154 94.1406 44 94.1406ZM70.3672 73.6328C70.3672 75.2482 69.0529 76.5625 67.4375 76.5625C65.8221 76.5625 64.5078 75.2482 64.5078 73.6328V49.8047C64.5078 48.1893 65.8221 46.875 67.4375 46.875C69.0529 46.875 70.3672 48.1893 70.3672 49.8047V73.6328ZM82.0859 67.7734C82.0859 69.3889 80.7717 70.7031 79.1562 70.7031H76.2266V52.7344H79.1562C80.7717 52.7344 82.0859 54.0486 82.0859 55.6641V67.7734Z" fill="#3498DB"/>
</svg>
