<svg width="120" height="112" viewBox="0 0 120 112" fill="none" xmlns="http://www.w3.org/2000/svg">
<path d="M88.605 62.6106H70.6399C68.2535 62.6106 66.312 64.6047 66.312 67.056V85.6483H65.8676C63.8721 85.6483 62.2488 87.3157 62.2488 89.3651V94.0158C62.2488 96.0656 63.8721 97.7327 65.8676 97.7327H93.3773C95.3728 97.7327 96.9959 96.0653 96.9959 94.0158V89.3651C96.9959 87.3154 95.3726 85.6483 93.3773 85.6483H92.933V67.056C92.933 64.6047 90.9912 62.6106 88.605 62.6106ZM81.3801 66.2218H88.605C89.0529 66.2218 89.4173 66.5962 89.4173 67.056V74.1293H81.3801V66.2218ZM81.3801 77.7405H89.4173V85.6483H81.3801V77.7405ZM69.8276 67.056C69.8276 66.5962 70.192 66.2218 70.6399 66.2218H77.8645V74.1293H69.8276V67.056ZM69.8276 77.7405H77.8645V85.6483H69.8276V77.7405ZM93.3773 89.2592C93.4341 89.2592 93.4802 89.3066 93.4802 89.3649V94.0156C93.4802 94.0739 93.4341 94.1213 93.3773 94.1213H65.8673C65.8106 94.1213 65.7642 94.0739 65.7642 94.0156V89.3649C65.7642 89.3066 65.8104 89.2592 65.8673 89.2592H93.3773Z" fill="#3498DB"/>
<path d="M115.621 36.4426L102.698 31.2858V13.8104C104.624 13.5342 106.113 11.8355 106.113 9.7822V4.07197C106.113 1.82678 104.334 0 102.148 0H76.7491C74.5634 0 72.7849 1.82678 72.7849 4.07197V9.7822C72.7849 11.8355 74.2739 13.5342 76.2 13.8104V20.7132L64.4004 16.005C61.5628 14.8728 58.4374 14.8728 55.5991 16.005L20.2045 30.1276C19.2996 30.4887 18.851 31.535 19.2026 32.4645C19.5539 33.3938 20.572 33.855 21.4777 33.4937L56.8723 19.3711C58.8893 18.5665 61.1112 18.5665 63.1277 19.3711L114.349 39.8087C115.646 40.3263 116.484 41.5847 116.484 43.0144V49.8641C116.484 51.0168 115.953 52.0513 115.027 52.7023C114.101 53.3532 112.969 53.4873 111.924 53.0699L62.4851 33.3437C60.8824 32.7043 59.1171 32.7043 57.5145 33.3437L8.07633 53.0701C7.02984 53.4873 5.89922 53.3535 4.97297 52.7025C4.04695 52.0515 3.51562 51.0171 3.51562 49.8644V43.0147C3.51562 41.5849 4.35398 40.3265 5.65148 39.8089L13.6216 36.6287C14.5266 36.2676 14.9752 35.2213 14.6236 34.2918C14.272 33.3622 13.2534 32.9017 12.3485 33.2626L4.37859 36.4428C1.71867 37.5038 0 40.0834 0 43.0144V49.8641C0 52.1924 1.1168 54.3675 2.98734 55.6825C4.85836 56.9974 7.23633 57.2791 9.34922 56.4362L11.4122 55.6131V104.759C11.4122 108.752 14.5744 112 18.4613 112H101.539C105.425 112 108.588 108.752 108.588 104.759V99.7661C108.588 98.7686 107.801 97.9605 106.83 97.9605C105.859 97.9605 105.072 98.7686 105.072 99.7661V104.759C105.072 106.761 103.487 108.389 101.539 108.389H56.3316V69.462C56.3316 65.6842 53.3393 62.6106 49.6615 62.6106H29.6742C25.9964 62.6106 23.0041 65.6842 23.0041 69.462V108.389H18.4615C16.5131 108.389 14.928 106.761 14.928 104.759V54.2105L58.7876 36.71C59.5699 36.3983 60.4308 36.3983 61.2127 36.71L105.072 54.2105V91.2078C105.072 92.2052 105.859 93.0134 106.83 93.0134C107.801 93.0134 108.588 92.2052 108.588 91.2078V55.6131L110.651 56.4362C111.456 56.7571 112.298 56.9151 113.137 56.9151C114.501 56.9148 115.854 56.4969 117.013 55.6825C118.883 54.3677 120 52.1926 120 49.8644V43.0147C120 40.0834 118.281 37.5038 115.621 36.4426ZM99.1821 29.883L79.7159 22.1158V13.8542H99.1821V29.883ZM102.597 9.78196C102.597 10.0362 102.396 10.2427 102.149 10.2427H76.7494C76.5019 10.2427 76.3008 10.0362 76.3008 9.78196V4.07197C76.3008 3.81774 76.5019 3.61118 76.7494 3.61118H102.149C102.396 3.61118 102.597 3.81774 102.597 4.07197V9.78196ZM26.5195 69.462C26.5195 67.6754 27.9347 66.2218 29.674 66.2218H49.6613C51.4005 66.2218 52.8157 67.6754 52.8157 69.462V108.389H26.5195V69.462Z" fill="#3498DB"/>
<path d="M31.3697 89.0281C32.2961 89.0281 33.0471 88.2567 33.0471 87.3051C33.0471 86.3535 32.2961 85.5821 31.3697 85.5821C30.4433 85.5821 29.6923 86.3535 29.6923 87.3051C29.6923 88.2567 30.4433 89.0281 31.3697 89.0281Z" fill="#3498DB"/>
</svg>
