<svg width="92" height="118" viewBox="0 0 92 118" fill="none" xmlns="http://www.w3.org/2000/svg">
<path d="M43.6797 48.1836H45.1299V50.2314H43.6797V53H41.1396V50.2314H35.8926L35.7783 48.6318L41.1133 40.2031H43.6797V48.1836ZM38.3096 48.1836H41.1396V43.666L40.9727 43.9561L38.3096 48.1836ZM53.4707 43.4902L53.5498 44.5537C54.2236 43.7275 55.1348 43.3145 56.2832 43.3145C57.5078 43.3145 58.3486 43.7979 58.8057 44.7646C59.4736 43.7979 60.4258 43.3145 61.6621 43.3145C62.6934 43.3145 63.4609 43.6162 63.9648 44.2197C64.4688 44.8174 64.7207 45.7197 64.7207 46.9268V53H62.1719V46.9355C62.1719 46.3965 62.0664 46.0039 61.8555 45.7578C61.6445 45.5059 61.2725 45.3799 60.7393 45.3799C59.9775 45.3799 59.4502 45.7432 59.1572 46.4697L59.166 53H56.626V46.9443C56.626 46.3936 56.5176 45.9951 56.3008 45.749C56.084 45.5029 55.7148 45.3799 55.1934 45.3799C54.4727 45.3799 53.9512 45.6787 53.6289 46.2764V53H51.0889V43.4902H53.4707Z" fill="#3498DB"/>
<path d="M86.1602 12.5585H25.1562C25.156 5.63371 19.5136 0 12.5781 0C5.64253 0 0 5.63407 0 12.5588V59.2059C0 60.1968 0.804458 61 1.79687 61H23.3593C24.3517 61 25.1562 60.1968 25.1562 59.2059V24.2202H86.1602C89.3802 24.2202 92 21.6044 92 18.3893C92 15.1743 89.3802 12.5585 86.1602 12.5585ZM21.5624 20.6324H14.8015C13.8091 20.6324 13.0047 21.4356 13.0047 22.4265C13.0047 23.4174 13.8091 24.2206 14.8015 24.2206H21.5624V57.4121H3.59374V53.4451H10.3546C11.347 53.4451 12.1515 52.6419 12.1515 51.651C12.1515 50.6601 11.347 49.8569 10.3546 49.8569H3.59374V12.559C3.59374 7.61262 7.62411 3.58859 12.5781 3.58859C17.532 3.58859 21.5624 7.6128 21.5624 12.559V20.6324ZM28.0056 20.632H25.1562V16.1467H32.4978L28.0056 20.632ZM42.3807 20.632H33.0882L37.5804 16.1467H46.8729L42.3807 20.632ZM56.7557 20.632H47.4632L51.9554 16.1467H61.2479L56.7557 20.632ZM71.1306 20.632H61.8381L66.3303 16.1467H75.6228L71.1306 20.632ZM86.1602 20.632H76.2131L80.7053 16.1467H86.1602C87.3988 16.1467 88.4063 17.1527 88.4063 18.3893C88.4063 19.626 87.3988 20.632 86.1602 20.632Z" fill="#3498DB"/>
<path d="M12.5781 7.17647C9.6057 7.17647 7.18747 9.591 7.18747 12.5588C7.18747 15.5267 9.6057 17.9414 12.5781 17.9414C15.5505 17.9412 17.9689 15.5267 17.9689 12.5588C17.9689 9.591 15.5505 7.17647 12.5781 7.17647ZM12.5781 14.3529C11.5873 14.3529 10.7812 13.5481 10.7812 12.5586C10.7812 11.5694 11.5873 10.7645 12.5781 10.7645C13.569 10.7645 14.3751 11.5694 14.3751 12.5586C14.3751 13.5483 13.569 14.3529 12.5781 14.3529Z" fill="#3498DB"/>
<path d="M9.28208 20.6327H9.23608C8.24367 20.6327 7.43921 21.4359 7.43921 22.4268C7.43921 23.4177 8.24367 24.221 9.23608 24.221H9.28208C10.2745 24.221 11.0789 23.4177 11.0789 22.4268C11.0789 21.4359 10.2745 20.6327 9.28208 20.6327Z" fill="#3498DB"/>
<path d="M15.9201 49.8573H15.8741C14.8817 49.8573 14.0772 50.6605 14.0772 51.6514C14.0772 52.6423 14.8817 53.4455 15.8741 53.4455H15.9201C16.9125 53.4455 17.7169 52.6423 17.7169 51.6514C17.7169 50.6605 16.9125 49.8573 15.9201 49.8573Z" fill="#3498DB"/>
<path d="M5.83982 69.5585H66.8438C66.844 62.6337 72.4864 57 79.4219 57C86.3575 57 92 62.6341 92 69.5588V116.206C92 117.197 91.1955 118 90.2031 118H68.6407C67.6483 118 66.8438 117.197 66.8438 116.206V81.2202H5.83982C2.61983 81.2202 0 78.6044 0 75.3893C0 72.1743 2.61983 69.5585 5.83982 69.5585ZM70.4376 77.6324H77.1985C78.1909 77.6324 78.9953 78.4356 78.9953 79.4265C78.9953 80.4174 78.1909 81.2206 77.1985 81.2206H70.4376V114.412H88.4063V110.445H81.6454C80.653 110.445 79.8485 109.642 79.8485 108.651C79.8485 107.66 80.653 106.857 81.6454 106.857H88.4063V69.559C88.4063 64.6126 84.3759 60.5886 79.4219 60.5886C74.468 60.5886 70.4376 64.6128 70.4376 69.559V77.6324ZM63.9944 77.632H66.8438V73.1467H59.5022L63.9944 77.632ZM49.6193 77.632H58.9118L54.4196 73.1467H45.1271L49.6193 77.632ZM35.2443 77.632H44.5368L40.0446 73.1467H30.7521L35.2443 77.632ZM20.8694 77.632H30.1619L25.6697 73.1467H16.3772L20.8694 77.632ZM5.83982 77.632H15.7869L11.2947 73.1467H5.83982C4.60123 73.1467 3.59373 74.1527 3.59373 75.3893C3.59373 76.626 4.60123 77.632 5.83982 77.632Z" fill="#3498DB"/>
<path d="M79.4219 64.1765C82.3943 64.1765 84.8125 66.591 84.8125 69.5588C84.8125 72.5267 82.3943 74.9414 79.4219 74.9414C76.4495 74.9412 74.0311 72.5267 74.0311 69.5588C74.0311 66.591 76.4495 64.1765 79.4219 64.1765ZM79.4219 71.3529C80.4127 71.3529 81.2188 70.5481 81.2188 69.5586C81.2188 68.5694 80.4127 67.7645 79.4219 67.7645C78.431 67.7645 77.6249 68.5694 77.6249 69.5586C77.6249 70.5483 78.431 71.3529 79.4219 71.3529Z" fill="#3498DB"/>
<path d="M82.7179 77.6327H82.7639C83.7563 77.6327 84.5608 78.4359 84.5608 79.4268C84.5608 80.4177 83.7563 81.221 82.7639 81.221H82.7179C81.7255 81.221 80.9211 80.4177 80.9211 79.4268C80.9211 78.4359 81.7255 77.6327 82.7179 77.6327Z" fill="#3498DB"/>
<path d="M76.0799 106.857H76.1259C77.1183 106.857 77.9228 107.661 77.9228 108.651C77.9228 109.642 77.1183 110.446 76.1259 110.446H76.0799C75.0875 110.446 74.2831 109.642 74.2831 108.651C74.2831 107.661 75.0875 106.857 76.0799 106.857Z" fill="#3498DB"/>
</svg>
