<svg width="36" height="37" viewBox="0 0 36 37" fill="none" xmlns="http://www.w3.org/2000/svg">
    <path d="M1 8H4.675M4.675 8H34.075M4.675 8V32.5C4.675 33.4283 5.06219 34.3185 5.75138 34.9749C6.44058 35.6313 7.37533 36 8.35 36H26.725C27.6997 36 28.6344 35.6313 29.3236 34.9749C30.0128 34.3185 30.4 33.4283 30.4 32.5V8H4.675ZM10.1875 8V4.5C10.1875 3.57174 10.5747 2.6815 11.2639 2.02513C11.9531 1.36875 12.8878 1 13.8625 1H21.2125C22.1872 1 23.1219 1.36875 23.8111 2.02513C24.5003 2.6815 24.8875 3.57174 24.8875 4.5V8M13.8625 16.75V27.25M21.2125 16.75V27.25" stroke="#EC7063" stroke-width="2" stroke-linecap="round" stroke-linejoin="round"/>
</svg>
