<svg width="117" height="100" viewBox="0 0 117 100" fill="none" xmlns="http://www.w3.org/2000/svg">
    <path d="M116.202 42.5562L44.904 1.19472C42.8568 0.0110783 40.4262 -0.308717 38.1447 0.305428C35.8633 0.919573 33.9172 2.41756 32.7331 4.47105L19.0603 28.266C17.8817 30.3239 17.5634 32.7674 18.1751 35.0607C18.7868 37.3541 20.2787 39.3101 22.3236 40.4997L46.7687 54.6806L42.9671 61.1947C42.4614 62.0569 41.741 62.772 40.8768 63.2694C40.0126 63.7669 39.0344 64.0297 38.0384 64.032H23.766V53.1017C23.766 52.6754 23.5975 52.2665 23.2975 51.9651C22.9975 51.6636 22.5906 51.4943 22.1664 51.4943H13.4826V49.4203C13.4805 47.533 12.7334 45.7237 11.4053 44.3892C10.0773 43.0547 8.27669 42.304 6.39854 42.3018H1.59963C1.38953 42.3017 1.18147 42.3432 0.987339 42.4239C0.793208 42.5047 0.616818 42.6231 0.468254 42.7723C0.319691 42.9216 0.201867 43.0989 0.12152 43.2939C0.0411738 43.489 -0.000119899 43.6981 2.61488e-07 43.9092V98.3926C-0.000119899 98.6037 0.0411738 98.8128 0.12152 99.0079C0.201867 99.2029 0.319691 99.3802 0.468254 99.5295C0.616818 99.6787 0.793208 99.7971 0.987339 99.8779C1.18147 99.9586 1.38953 100 1.59963 100H6.39854C8.27669 99.9978 10.0773 99.2471 11.4053 97.9126C12.7334 96.5781 13.4805 94.7688 13.4826 92.8815V87.7755H22.1664C22.5906 87.7755 22.9975 87.6062 23.2975 87.3047C23.5975 87.0033 23.766 86.5944 23.766 86.1681V78.2689H38.0384C41.5037 78.2615 44.9073 77.3476 47.9144 75.6171C50.9215 73.8866 53.4283 71.3991 55.1883 68.3995L59.0393 61.8009L72.4387 69.5743C73.7878 70.3609 75.3196 70.7759 76.8793 70.7775C77.6633 70.7772 78.4439 70.6734 79.2011 70.4689C80.6561 70.08 81.9884 69.3248 83.0722 68.2746C84.8248 69.0917 86.7333 69.516 88.6654 69.5182C89.8495 69.5174 91.0284 69.3606 92.1718 69.0517C95.0883 68.2728 97.6565 66.5245 99.4579 64.0917L102.734 65.9921C102.916 66.0978 103.117 66.1664 103.325 66.194C103.534 66.2217 103.745 66.2077 103.948 66.1531C104.151 66.0984 104.342 66.004 104.508 65.8754C104.675 65.7467 104.815 65.5863 104.92 65.4033L116.784 44.7542C116.89 44.5715 116.958 44.3697 116.986 44.1603C117.014 43.951 117 43.7382 116.946 43.5341C116.892 43.33 116.799 43.1386 116.671 42.9708C116.543 42.803 116.384 42.6621 116.202 42.5562ZM10.2834 92.8815C10.2824 93.9165 9.87279 94.9089 9.14445 95.6408C8.41612 96.3726 7.42856 96.7842 6.39854 96.7852H3.19927V45.5166H6.39854C7.42856 45.5176 8.41612 45.9292 9.14445 46.661C9.87279 47.3929 10.2824 48.3853 10.2834 49.4203V92.8815ZM20.5667 84.5607H13.4826V54.7091H20.5667V84.5607ZM52.4278 66.7728C50.9514 69.29 48.8482 71.3774 46.3251 72.8296C43.802 74.2818 40.946 75.0488 38.0384 75.055H23.766V67.2477H38.0384C39.592 67.2443 41.1179 66.8344 42.466 66.0585C43.8141 65.2825 44.9378 64.1672 45.7267 62.8223L49.5429 56.2898L56.2724 60.1935L52.4278 66.7728ZM74.0402 66.7903L23.9232 37.7157C22.6122 36.9533 21.6557 35.6994 21.2636 34.2291C20.8715 32.7589 21.0759 31.1924 21.8318 29.8734L26.4936 21.7565L86.5045 56.5718L81.8418 64.6924L81.8354 64.7025C81.7138 64.9099 81.5792 65.1093 81.4323 65.2995V65.306C80.5888 66.412 79.374 67.1723 78.0141 67.4453C76.6543 67.7184 75.242 67.4856 74.0402 66.7903ZM91.3501 65.9462C89.2548 66.5154 87.0334 66.398 85.0091 65.6109L89.2806 58.1774L96.6782 62.4687C95.3156 64.1688 93.4482 65.3871 91.3482 65.9462H91.3501ZM102.954 62.4007L28.0951 18.9725L35.5036 6.07845C36.2627 4.76138 37.5107 3.80064 38.9738 3.407C40.4369 3.01336 41.9956 3.21898 43.308 3.97873L113.217 44.5375L102.954 62.4007Z" fill="white"/>
    <path d="M96.1188 53.6638C97.0503 54.2075 98.1083 54.4943 99.1855 54.4951C99.7263 54.4946 100.265 54.423 100.787 54.282C102.162 53.912 103.366 53.0744 104.195 51.912C105.025 50.7497 105.427 49.3343 105.334 47.9073C105.241 46.4802 104.659 45.1296 103.686 44.0857C102.713 43.0418 101.41 42.3691 99.9992 42.1822C98.5881 41.9954 97.1563 42.306 95.9476 43.061C94.7389 43.8161 93.8281 44.9689 93.3704 46.323C92.9128 47.6772 92.9365 49.149 93.4377 50.4875C93.9388 51.826 94.8864 52.9486 96.1188 53.6638ZM96.6389 46.8273C96.8324 46.4902 97.0905 46.1949 97.3981 45.9584C97.7058 45.7219 98.0569 45.549 98.4314 45.4496C98.6819 45.3822 98.94 45.3479 99.1992 45.3476C99.8498 45.3477 100.482 45.5635 100.998 45.9615C101.514 46.3595 101.885 46.9175 102.053 47.549C102.222 48.1804 102.178 48.8501 101.929 49.454C101.68 50.0579 101.239 50.5623 100.676 50.8891C100.113 51.2159 99.4576 51.3467 98.8126 51.2612C98.1677 51.1758 97.5688 50.8789 97.1088 50.4166C96.6489 49.9543 96.3537 49.3524 96.2689 48.7042C96.1841 48.0561 96.3144 47.398 96.6398 46.8319L96.6389 46.8273Z" fill="white"/>
    <path d="M41.5905 37.385L28.4826 29.7788C28.3006 29.6716 28.0993 29.6016 27.8903 29.5729C27.6813 29.5442 27.4687 29.5573 27.2647 29.6115C27.0608 29.6657 26.8695 29.7599 26.7019 29.8886C26.5344 30.0174 26.3938 30.1782 26.2883 30.3618C26.1828 30.5454 26.1145 30.7481 26.0873 30.9583C26.0601 31.1685 26.0746 31.3821 26.1299 31.5866C26.1851 31.7912 26.2801 31.9828 26.4094 32.1503C26.5386 32.3179 26.6996 32.4581 26.883 32.5628L39.9945 40.1681C40.3604 40.3604 40.7861 40.403 41.1826 40.2871C41.579 40.1712 41.9155 39.9057 42.1217 39.5462C42.3278 39.1867 42.3876 38.7611 42.2886 38.3583C42.1896 37.9555 41.9395 37.6067 41.5905 37.385Z" fill="white"/>
</svg>
