<svg width="127" height="111" viewBox="0 0 127 111" fill="none" xmlns="http://www.w3.org/2000/svg">
<path d="M36.547 111C37.0281 111 37.4896 110.81 37.8299 110.472C38.1701 110.133 38.3613 109.674 38.3613 109.196V13.3476L61.3555 3.75411L80.665 11.3087V109.196C80.665 109.674 80.8561 110.133 81.1964 110.472C81.5366 110.81 81.9981 111 82.4792 111C82.9604 111 83.4219 110.81 83.7621 110.472C84.1024 110.133 84.2935 109.674 84.2935 109.196V10.0782C84.2937 9.71568 84.184 9.36154 83.9788 9.06191C83.7737 8.76228 83.4825 8.53106 83.1433 8.39838L61.9978 0.125659C61.5579 -0.046746 61.0677 -0.0415667 60.6316 0.140094L35.8448 10.4842C35.5153 10.6217 35.234 10.8529 35.0361 11.1489C34.8383 11.4449 34.7327 11.7923 34.7327 12.1477V109.196C34.7327 109.674 34.9238 110.133 35.2641 110.472C35.6043 110.81 36.0658 111 36.547 111Z" fill="white"/>
<path d="M61.3337 111C61.8149 111 62.2764 110.81 62.6166 110.472C62.9569 110.133 63.148 109.674 63.148 109.196V1.80546C63.148 1.32693 62.9569 0.868002 62.6166 0.52963C62.2764 0.191258 61.8149 0.00116241 61.3337 0.00116241C60.8526 0.00116241 60.3911 0.191258 60.0508 0.52963C59.7106 0.868002 59.5195 1.32693 59.5195 1.80546V109.196C59.5195 109.674 59.7106 110.133 60.0508 110.472C60.3911 110.81 60.8526 111 61.3337 111Z" fill="white"/>
<path d="M7.25532 111C7.7365 111 8.19797 110.81 8.53822 110.472C8.87846 110.133 9.0696 109.674 9.0696 109.196V52.4865L26.8097 42.2218H36.547C37.0281 42.2218 37.4896 42.0317 37.8299 41.6934C38.1701 41.355 38.3613 40.896 38.3613 40.4175C38.3613 39.939 38.1701 39.4801 37.8299 39.1417C37.4896 38.8033 37.0281 38.6132 36.547 38.6132H26.3198C26.001 38.6143 25.6881 38.699 25.4127 38.8586L6.34637 49.8901C6.0711 50.0482 5.84242 50.2753 5.68322 50.5489C5.52401 50.8225 5.43987 51.1329 5.43922 51.449V109.187C5.43803 109.425 5.48414 109.66 5.57489 109.88C5.66564 110.1 5.79926 110.3 5.96804 110.469C6.13682 110.638 6.33745 110.771 6.55837 110.862C6.7793 110.953 7.01614 111 7.25532 111Z" fill="white"/>
<path d="M26.3198 111C26.801 111 27.2625 110.81 27.6027 110.472C27.943 110.133 28.1341 109.674 28.1341 109.196V40.4175C28.1341 39.939 27.943 39.4801 27.6027 39.1417C27.2625 38.8033 26.801 38.6132 26.3198 38.6132C25.8387 38.6132 25.3772 38.8033 25.0369 39.1417C24.6967 39.4801 24.5056 39.939 24.5056 40.4175V109.196C24.5056 109.674 24.6967 110.133 25.0369 110.472C25.3772 110.81 25.8387 111 26.3198 111Z" fill="white"/>
<path d="M119.746 111C120.228 111 120.689 110.81 121.029 110.472C121.37 110.133 121.561 109.674 121.561 109.196V53.0007C121.561 52.5222 121.37 52.0633 121.029 51.7249C120.689 51.3865 120.228 51.1964 119.746 51.1964H82.4792C81.9981 51.1964 81.5366 51.3865 81.1964 51.7249C80.8561 52.0633 80.665 52.5222 80.665 53.0007C80.665 53.4792 80.8561 53.9382 81.1964 54.2766C81.5366 54.6149 81.9981 54.805 82.4792 54.805H117.932V109.196C117.932 109.674 118.123 110.133 118.464 110.472C118.804 110.81 119.265 111 119.746 111Z" fill="white"/>
<path d="M109.759 61.7353H113.614C114.095 61.7353 114.557 61.5452 114.897 61.2069C115.237 60.8685 115.428 60.4096 115.428 59.931C115.428 59.4525 115.237 58.9936 114.897 58.6552C114.557 58.3168 114.095 58.1267 113.614 58.1267H109.759C109.278 58.1267 108.816 58.3168 108.476 58.6552C108.136 58.9936 107.945 59.4525 107.945 59.931C107.945 60.4096 108.136 60.8685 108.476 61.2069C108.816 61.5452 109.278 61.7353 109.759 61.7353Z" fill="white"/>
<path d="M99.1834 61.7353H103.041C103.522 61.7353 103.983 61.5452 104.323 61.2069C104.664 60.8685 104.855 60.4096 104.855 59.931C104.855 59.4525 104.664 58.9936 104.323 58.6552C103.983 58.3168 103.522 58.1267 103.041 58.1267H99.1834C98.7022 58.1267 98.2407 58.3168 97.9005 58.6552C97.5602 58.9936 97.3691 59.4525 97.3691 59.931C97.3691 60.4096 97.5602 60.8685 97.9005 61.2069C98.2407 61.5452 98.7022 61.7353 99.1834 61.7353Z" fill="white"/>
<path d="M88.6115 61.7353H92.4669C92.9481 61.7353 93.4095 61.5452 93.7498 61.2069C94.09 60.8685 94.2812 60.4096 94.2812 59.931C94.2812 59.4525 94.09 58.9936 93.7498 58.6552C93.4095 58.3168 92.9481 58.1267 92.4669 58.1267H88.6115C88.1303 58.1267 87.6689 58.3168 87.3286 58.6552C86.9884 58.9936 86.7972 59.4525 86.7972 59.931C86.7972 60.4096 86.9884 60.8685 87.3286 61.2069C87.6689 61.5452 88.1303 61.7353 88.6115 61.7353Z" fill="white"/>
<path d="M109.759 70.2029H113.614C114.095 70.2029 114.557 70.0128 114.897 69.6745C115.237 69.3361 115.428 68.8772 115.428 68.3986C115.428 67.9201 115.237 67.4612 114.897 67.1228C114.557 66.7844 114.095 66.5943 113.614 66.5943H109.759C109.278 66.5943 108.816 66.7844 108.476 67.1228C108.136 67.4612 107.945 67.9201 107.945 68.3986C107.945 68.8772 108.136 69.3361 108.476 69.6745C108.816 70.0128 109.278 70.2029 109.759 70.2029Z" fill="white"/>
<path d="M99.1834 70.2029H103.041C103.522 70.2029 103.983 70.0128 104.323 69.6745C104.664 69.3361 104.855 68.8772 104.855 68.3986C104.855 67.9201 104.664 67.4612 104.323 67.1228C103.983 66.7844 103.522 66.5943 103.041 66.5943H99.1834C98.7022 66.5943 98.2407 66.7844 97.9005 67.1228C97.5602 67.4612 97.3691 67.9201 97.3691 68.3986C97.3691 68.8772 97.5602 69.3361 97.9005 69.6745C98.2407 70.0128 98.7022 70.2029 99.1834 70.2029Z" fill="white"/>
<path d="M88.6115 70.2029H92.4669C92.9481 70.2029 93.4095 70.0128 93.7498 69.6745C94.09 69.3361 94.2812 68.8772 94.2812 68.3986C94.2812 67.9201 94.09 67.4612 93.7498 67.1228C93.4095 66.7844 92.9481 66.5943 92.4669 66.5943H88.6115C88.1303 66.5943 87.6689 66.7844 87.3286 67.1228C86.9884 67.4612 86.7972 67.9201 86.7972 68.3986C86.7972 68.8772 86.9884 69.3361 87.3286 69.6745C87.6689 70.0128 88.1303 70.2029 88.6115 70.2029Z" fill="white"/>
<path d="M109.759 78.6687H113.614C114.095 78.6687 114.557 78.4786 114.897 78.1402C115.237 77.8019 115.428 77.3429 115.428 76.8644C115.428 76.3859 115.237 75.9269 114.897 75.5886C114.557 75.2502 114.095 75.0601 113.614 75.0601H109.759C109.278 75.0601 108.816 75.2502 108.476 75.5886C108.136 75.9269 107.945 76.3859 107.945 76.8644C107.945 77.3429 108.136 77.8019 108.476 78.1402C108.816 78.4786 109.278 78.6687 109.759 78.6687Z" fill="white"/>
<path d="M99.1834 78.6687H103.041C103.522 78.6687 103.983 78.4786 104.323 78.1402C104.664 77.8019 104.855 77.3429 104.855 76.8644C104.855 76.3859 104.664 75.9269 104.323 75.5886C103.983 75.2502 103.522 75.0601 103.041 75.0601H99.1834C98.7022 75.0601 98.2407 75.2502 97.9005 75.5886C97.5602 75.9269 97.3691 76.3859 97.3691 76.8644C97.3691 77.3429 97.5602 77.8019 97.9005 78.1402C98.2407 78.4786 98.7022 78.6687 99.1834 78.6687Z" fill="white"/>
<path d="M88.6115 78.6687H92.4669C92.9481 78.6687 93.4095 78.4786 93.7498 78.1402C94.09 77.8019 94.2812 77.3429 94.2812 76.8644C94.2812 76.3859 94.09 75.9269 93.7498 75.5886C93.4095 75.2502 92.9481 75.0601 92.4669 75.0601H88.6115C88.1303 75.0601 87.6689 75.2502 87.3286 75.5886C86.9884 75.9269 86.7972 76.3859 86.7972 76.8644C86.7972 77.3429 86.9884 77.8019 87.3286 78.1402C87.6689 78.4786 88.1303 78.6687 88.6115 78.6687Z" fill="white"/>
<path d="M109.759 87.1363H113.614C114.095 87.1363 114.557 86.9462 114.897 86.6078C115.237 86.2695 115.428 85.8105 115.428 85.332C115.428 84.8535 115.237 84.3945 114.897 84.0562C114.557 83.7178 114.095 83.5277 113.614 83.5277H109.759C109.278 83.5277 108.816 83.7178 108.476 84.0562C108.136 84.3945 107.945 84.8535 107.945 85.332C107.945 85.8105 108.136 86.2695 108.476 86.6078C108.816 86.9462 109.278 87.1363 109.759 87.1363Z" fill="white"/>
<path d="M99.1834 87.1363H103.041C103.522 87.1363 103.983 86.9462 104.323 86.6078C104.664 86.2695 104.855 85.8105 104.855 85.332C104.855 84.8535 104.664 84.3945 104.323 84.0562C103.983 83.7178 103.522 83.5277 103.041 83.5277H99.1834C98.7022 83.5277 98.2407 83.7178 97.9005 84.0562C97.5602 84.3945 97.3691 84.8535 97.3691 85.332C97.3691 85.8105 97.5602 86.2695 97.9005 86.6078C98.2407 86.9462 98.7022 87.1363 99.1834 87.1363Z" fill="white"/>
<path d="M88.6115 87.1363H92.4669C92.9481 87.1363 93.4095 86.9462 93.7498 86.6078C94.09 86.2695 94.2812 85.8105 94.2812 85.332C94.2812 84.8535 94.09 84.3945 93.7498 84.0562C93.4095 83.7178 92.9481 83.5277 92.4669 83.5277H88.6115C88.1303 83.5277 87.6689 83.7178 87.3286 84.0562C86.9884 84.3945 86.7972 84.8535 86.7972 85.332C86.7972 85.8105 86.9884 86.2695 87.3286 86.6078C87.6689 86.9462 88.1303 87.1363 88.6115 87.1363Z" fill="white"/>
<path d="M109.759 95.6039H113.614C114.095 95.6039 114.557 95.4138 114.897 95.0754C115.237 94.737 115.428 94.2781 115.428 93.7996C115.428 93.3211 115.237 92.8621 114.897 92.5237C114.557 92.1854 114.095 91.9953 113.614 91.9953H109.759C109.278 91.9953 108.816 92.1854 108.476 92.5237C108.136 92.8621 107.945 93.3211 107.945 93.7996C107.945 94.2781 108.136 94.737 108.476 95.0754C108.816 95.4138 109.278 95.6039 109.759 95.6039Z" fill="white"/>
<path d="M99.1834 95.6039H103.041C103.522 95.6039 103.983 95.4138 104.323 95.0754C104.664 94.737 104.855 94.2781 104.855 93.7996C104.855 93.3211 104.664 92.8621 104.323 92.5237C103.983 92.1854 103.522 91.9953 103.041 91.9953H99.1834C98.7022 91.9953 98.2407 92.1854 97.9005 92.5237C97.5602 92.8621 97.3691 93.3211 97.3691 93.7996C97.3691 94.2781 97.5602 94.737 97.9005 95.0754C98.2407 95.4138 98.7022 95.6039 99.1834 95.6039Z" fill="white"/>
<path d="M88.6115 95.6039H92.4669C92.9481 95.6039 93.4095 95.4138 93.7498 95.0754C94.09 94.737 94.2812 94.2781 94.2812 93.7996C94.2812 93.3211 94.09 92.8621 93.7498 92.5237C93.4095 92.1854 92.9481 91.9953 92.4669 91.9953H88.6115C88.1303 91.9953 87.6689 92.1854 87.3286 92.5237C86.9884 92.8621 86.7972 93.3211 86.7972 93.7996C86.7972 94.2781 86.9884 94.737 87.3286 95.0754C87.6689 95.4138 88.1303 95.6039 88.6115 95.6039Z" fill="white"/>
<path d="M109.759 104.071H113.614C114.095 104.071 114.557 103.881 114.897 103.543C115.237 103.205 115.428 102.746 115.428 102.267C115.428 101.789 115.237 101.33 114.897 100.991C114.557 100.653 114.095 100.463 113.614 100.463H109.759C109.278 100.463 108.816 100.653 108.476 100.991C108.136 101.33 107.945 101.789 107.945 102.267C107.945 102.746 108.136 103.205 108.476 103.543C108.816 103.881 109.278 104.071 109.759 104.071Z" fill="white"/>
<path d="M99.1834 104.071H103.041C103.522 104.071 103.983 103.881 104.323 103.543C104.664 103.205 104.855 102.746 104.855 102.267C104.855 101.789 104.664 101.33 104.323 100.991C103.983 100.653 103.522 100.463 103.041 100.463H99.1834C98.7022 100.463 98.2407 100.653 97.9005 100.991C97.5602 101.33 97.3691 101.789 97.3691 102.267C97.3691 102.746 97.5602 103.205 97.9005 103.543C98.2407 103.881 98.7022 104.071 99.1834 104.071Z" fill="white"/>
<path d="M88.6115 104.071H92.4669C92.9481 104.071 93.4095 103.881 93.7498 103.543C94.09 103.205 94.2812 102.746 94.2812 102.267C94.2812 101.789 94.09 101.33 93.7498 100.991C93.4095 100.653 92.9481 100.463 92.4669 100.463H88.6115C88.1303 100.463 87.6689 100.653 87.3286 100.991C86.9884 101.33 86.7972 101.789 86.7972 102.267C86.7972 102.746 86.9884 103.205 87.3286 103.543C87.6689 103.881 88.1303 104.071 88.6115 104.071Z" fill="white"/>
<path d="M67.7291 19.4678C68.2103 19.4678 68.6717 19.2777 69.012 18.9393C69.3522 18.6009 69.5434 18.142 69.5434 17.6635V14.2588C69.5434 13.7802 69.3522 13.3213 69.012 12.9829C68.6717 12.6445 68.2103 12.4545 67.7291 12.4545C67.2479 12.4545 66.7865 12.6445 66.4462 12.9829C66.106 13.3213 65.9148 13.7802 65.9148 14.2588V17.6635C65.9148 18.142 66.106 18.6009 66.4462 18.9393C66.7865 19.2777 67.2479 19.4678 67.7291 19.4678Z" fill="white"/>
<path d="M76.0022 21.5662C76.4834 21.5662 76.9449 21.3761 77.2851 21.0377C77.6254 20.6993 77.8165 20.2404 77.8165 19.7619V16.3572C77.8165 15.8786 77.6254 15.4197 77.2851 15.0813C76.9449 14.743 76.4834 14.5529 76.0022 14.5529C75.5211 14.5529 75.0596 14.743 74.7193 15.0813C74.3791 15.4197 74.188 15.8786 74.188 16.3572V19.7619C74.188 20.2404 74.3791 20.6993 74.7193 21.0377C75.0596 21.3761 75.5211 21.5662 76.0022 21.5662Z" fill="white"/>
<path d="M67.7291 33.0397C68.2103 33.0397 68.6717 32.8496 69.012 32.5113C69.3522 32.1729 69.5434 31.714 69.5434 31.2354V27.8307C69.5434 27.3522 69.3522 26.8932 69.012 26.5549C68.6717 26.2165 68.2103 26.0264 67.7291 26.0264C67.2479 26.0264 66.7865 26.2165 66.4462 26.5549C66.106 26.8932 65.9148 27.3522 65.9148 27.8307V31.2354C65.9148 31.714 66.106 32.1729 66.4462 32.5113C66.7865 32.8496 67.2479 33.0397 67.7291 33.0397Z" fill="white"/>
<path d="M76.0022 35.1381C76.4834 35.1381 76.9449 34.948 77.2851 34.6097C77.6254 34.2713 77.8165 33.8124 77.8165 33.3338V29.9291C77.8165 29.4506 77.6254 28.9917 77.2851 28.6533C76.9449 28.3149 76.4834 28.1248 76.0022 28.1248C75.5211 28.1248 75.0596 28.3149 74.7193 28.6533C74.3791 28.9917 74.188 29.4506 74.188 29.9291V33.3338C74.188 33.8124 74.3791 34.2713 74.7193 34.6097C75.0596 34.948 75.5211 35.1381 76.0022 35.1381Z" fill="white"/>
<path d="M67.7291 46.6189C68.2103 46.6189 68.6717 46.4288 69.012 46.0904C69.3522 45.7521 69.5434 45.2931 69.5434 44.8146V41.4027C69.5434 40.9241 69.3522 40.4652 69.012 40.1268C68.6717 39.7885 68.2103 39.5984 67.7291 39.5984C67.2479 39.5984 66.7865 39.7885 66.4462 40.1268C66.106 40.4652 65.9148 40.9241 65.9148 41.4027V44.8146C65.9148 45.2931 66.106 45.7521 66.4462 46.0904C66.7865 46.4288 67.2479 46.6189 67.7291 46.6189Z" fill="white"/>
<path d="M76.0022 48.7101C76.4834 48.7101 76.9449 48.52 77.2851 48.1816C77.6254 47.8433 77.8165 47.3843 77.8165 46.9058V43.5011C77.8165 43.0225 77.6254 42.5636 77.2851 42.2252C76.9449 41.8869 76.4834 41.6968 76.0022 41.6968C75.5211 41.6968 75.0596 41.8869 74.7193 42.2252C74.3791 42.5636 74.188 43.0225 74.188 43.5011V46.9058C74.188 47.3843 74.3791 47.8433 74.7193 48.1816C75.0596 48.52 75.5211 48.7101 76.0022 48.7101Z" fill="white"/>
<path d="M67.7291 60.1818C68.2103 60.1818 68.6717 59.9917 69.012 59.6534C69.3522 59.315 69.5434 58.8561 69.5434 58.3775V54.9728C69.5434 54.4943 69.3522 54.0354 69.012 53.697C68.6717 53.3586 68.2103 53.1685 67.7291 53.1685C67.2479 53.1685 66.7865 53.3586 66.4462 53.697C66.106 54.0354 65.9148 54.4943 65.9148 54.9728V58.3775C65.9148 58.8561 66.106 59.315 66.4462 59.6534C66.7865 59.9917 67.2479 60.1818 67.7291 60.1818Z" fill="white"/>
<path d="M76.0022 62.2802C76.4834 62.2802 76.9449 62.0901 77.2851 61.7518C77.6254 61.4134 77.8165 60.9545 77.8165 60.4759V57.0712C77.8165 56.5927 77.6254 56.1338 77.2851 55.7954C76.9449 55.457 76.4834 55.2669 76.0022 55.2669C75.5211 55.2669 75.0596 55.457 74.7193 55.7954C74.3791 56.1338 74.188 56.5927 74.188 57.0712V60.4759C74.188 60.9545 74.3791 61.4134 74.7193 61.7518C75.0596 62.0901 75.5211 62.2802 76.0022 62.2802Z" fill="white"/>
<path d="M67.7291 73.7538C68.2103 73.7538 68.6717 73.5637 69.012 73.2253C69.3522 72.8869 69.5434 72.428 69.5434 71.9495V68.5448C69.5434 68.0662 69.3522 67.6073 69.012 67.2689C68.6717 66.9306 68.2103 66.7405 67.7291 66.7405C67.2479 66.7405 66.7865 66.9306 66.4462 67.2689C66.106 67.6073 65.9148 68.0662 65.9148 68.5448V71.9495C65.9148 72.428 66.106 72.8869 66.4462 73.2253C66.7865 73.5637 67.2479 73.7538 67.7291 73.7538Z" fill="white"/>
<path d="M76.0022 75.8486C76.4834 75.8486 76.9449 75.6585 77.2851 75.3201C77.6254 74.9817 77.8165 74.5228 77.8165 74.0443V70.6432C77.8165 70.1646 77.6254 69.7057 77.2851 69.3673C76.9449 69.029 76.4834 68.8389 76.0022 68.8389C75.5211 68.8389 75.0596 69.029 74.7193 69.3673C74.3791 69.7057 74.188 70.1646 74.188 70.6432V74.0443C74.188 74.5228 74.3791 74.9817 74.7193 75.3201C75.0596 75.6585 75.5211 75.8486 76.0022 75.8486Z" fill="white"/>
<path d="M67.7291 87.3257C68.2103 87.3257 68.6717 87.1357 69.012 86.7973C69.3522 86.4589 69.5434 86 69.5434 85.5214V82.1167C69.5434 81.6382 69.3522 81.1793 69.012 80.8409C68.6717 80.5025 68.2103 80.3124 67.7291 80.3124C67.2479 80.3124 66.7865 80.5025 66.4462 80.8409C66.106 81.1793 65.9148 81.6382 65.9148 82.1167V85.5214C65.9148 86 66.106 86.4589 66.4462 86.7973C66.7865 87.1357 67.2479 87.3257 67.7291 87.3257Z" fill="white"/>
<path d="M76.0022 89.4242C76.4834 89.4242 76.9449 89.2341 77.2851 88.8957C77.6254 88.5573 77.8165 88.0984 77.8165 87.6199V84.2151C77.8165 83.7366 77.6254 83.2777 77.2851 82.9393C76.9449 82.6009 76.4834 82.4108 76.0022 82.4108C75.5211 82.4108 75.0596 82.6009 74.7193 82.9393C74.3791 83.2777 74.188 83.7366 74.188 84.2151V87.6199C74.188 88.0984 74.3791 88.5573 74.7193 88.8957C75.0596 89.2341 75.5211 89.4242 76.0022 89.4242Z" fill="white"/>
<path d="M67.7291 100.896C68.2103 100.896 68.6717 100.706 69.012 100.367C69.3522 100.029 69.5434 99.5701 69.5434 99.0916V95.6959C69.5434 95.2174 69.3522 94.7584 69.012 94.4201C68.6717 94.0817 68.2103 93.8916 67.7291 93.8916C67.2479 93.8916 66.7865 94.0817 66.4462 94.4201C66.106 94.7584 65.9148 95.2174 65.9148 95.6959V99.1006C65.9172 99.5776 66.1094 100.034 66.4494 100.371C66.7894 100.707 67.2495 100.896 67.7291 100.896Z" fill="white"/>
<path d="M76.0022 102.996C76.4834 102.996 76.9449 102.806 77.2851 102.468C77.6254 102.129 77.8165 101.67 77.8165 101.192V97.7853C77.8165 97.3068 77.6254 96.8478 77.2851 96.5094C76.9449 96.1711 76.4834 95.981 76.0022 95.981C75.5211 95.981 75.0596 96.1711 74.7193 96.5094C74.3791 96.8478 74.188 97.3068 74.188 97.7853V101.19C74.1877 101.427 74.2345 101.662 74.3255 101.881C74.4166 102.1 74.5502 102.299 74.7187 102.467C74.8872 102.635 75.0873 102.768 75.3075 102.859C75.5278 102.949 75.7638 102.996 76.0022 102.996Z" fill="white"/>
<path d="M55.2105 17.7501C55.6917 17.7501 56.1532 17.56 56.4934 17.2216C56.8337 16.8832 57.0248 16.4243 57.0248 15.9458V12.5447C57.0248 12.0661 56.8337 11.6072 56.4934 11.2688C56.1532 10.9305 55.6917 10.7404 55.2105 10.7404C54.7294 10.7404 54.2679 10.9305 53.9276 11.2688C53.5874 11.6072 53.3962 12.0661 53.3962 12.5447V15.9458C53.3962 16.4243 53.5874 16.8832 53.9276 17.2216C54.2679 17.56 54.7294 17.7501 55.2105 17.7501Z" fill="white"/>
<path d="M49.0837 20.0506C49.5649 20.0506 50.0263 19.8605 50.3666 19.5221C50.7068 19.1837 50.898 18.7248 50.898 18.2463V14.8433C50.898 14.3648 50.7068 13.9059 50.3666 13.5675C50.0263 13.2291 49.5649 13.039 49.0837 13.039C48.6025 13.039 48.141 13.2291 47.8008 13.5675C47.4605 13.9059 47.2694 14.3648 47.2694 14.8433V18.2481C47.2699 18.7263 47.4612 19.1847 47.8014 19.5227C48.1416 19.8607 48.6028 20.0506 49.0837 20.0506Z" fill="white"/>
<path d="M42.9605 22.3492C43.4417 22.3492 43.9031 22.1591 44.2434 21.8208C44.5836 21.4824 44.7748 21.0235 44.7748 20.5449V17.142C44.7748 16.6635 44.5836 16.2046 44.2434 15.8662C43.9031 15.5278 43.4417 15.3377 42.9605 15.3377C42.4793 15.3377 42.0178 15.5278 41.6776 15.8662C41.3373 16.2046 41.1462 16.6635 41.1462 17.142V20.5467C41.1467 21.025 41.338 21.4834 41.6782 21.8214C42.0184 22.1594 42.4796 22.3492 42.9605 22.3492Z" fill="white"/>
<path d="M55.2105 31.2823C55.6917 31.2823 56.1532 31.0922 56.4934 30.7539C56.8337 30.4155 57.0248 29.9566 57.0248 29.478V26.0679C57.0248 25.5894 56.8337 25.1304 56.4934 24.7921C56.1532 24.4537 55.6917 24.2636 55.2105 24.2636C54.7294 24.2636 54.2679 24.4537 53.9276 24.7921C53.5874 25.1304 53.3962 25.5894 53.3962 26.0679V29.478C53.3962 29.9566 53.5874 30.4155 53.9276 30.7539C54.2679 31.0922 54.7294 31.2823 55.2105 31.2823Z" fill="white"/>
<path d="M49.0837 33.5738C49.5649 33.5738 50.0263 33.3837 50.3666 33.0453C50.7068 32.707 50.898 32.248 50.898 31.7695V28.3666C50.898 27.8881 50.7068 27.4291 50.3666 27.0908C50.0263 26.7524 49.5649 26.5623 49.0837 26.5623C48.6025 26.5623 48.141 26.7524 47.8008 27.0908C47.4605 27.4291 47.2694 27.8881 47.2694 28.3666V31.7695C47.2694 32.248 47.4605 32.707 47.8008 33.0453C48.141 33.3837 48.6025 33.5738 49.0837 33.5738Z" fill="white"/>
<path d="M42.9605 35.8725C43.4417 35.8725 43.9031 35.6824 44.2434 35.344C44.5836 35.0056 44.7748 34.5467 44.7748 34.0682V30.6653C44.7748 30.1867 44.5836 29.7278 44.2434 29.3894C43.9031 29.0511 43.4417 28.861 42.9605 28.861C42.4793 28.861 42.0178 29.0511 41.6776 29.3894C41.3373 29.7278 41.1462 30.1867 41.1462 30.6653V34.07C41.1467 34.5482 41.338 35.0067 41.6782 35.3447C42.0184 35.6826 42.4796 35.8725 42.9605 35.8725Z" fill="white"/>
<path d="M55.2105 44.8002C55.6917 44.8002 56.1532 44.6101 56.4934 44.2717C56.8337 43.9333 57.0248 43.4744 57.0248 42.9959V39.5821C57.0248 39.1036 56.8337 38.6447 56.4934 38.3063C56.1532 37.9679 55.6917 37.7778 55.2105 37.7778C54.7294 37.7778 54.2679 37.9679 53.9276 38.3063C53.5874 38.6447 53.3962 39.1036 53.3962 39.5821V42.9868C53.3951 43.2245 53.4411 43.4601 53.5317 43.6801C53.6224 43.9 53.7558 44.1 53.9244 44.2685C54.093 44.437 54.2934 44.5707 54.5141 44.662C54.7348 44.7532 54.9715 44.8002 55.2105 44.8002Z" fill="white"/>
<path d="M49.0837 47.0988C49.5649 47.0988 50.0263 46.9087 50.3666 46.5704C50.7068 46.232 50.898 45.7731 50.898 45.2945V41.8898C50.898 41.4113 50.7068 40.9524 50.3666 40.614C50.0263 40.2756 49.5649 40.0855 49.0837 40.0855C48.6025 40.0855 48.141 40.2756 47.8008 40.614C47.4605 40.9524 47.2694 41.4113 47.2694 41.8898V45.2945C47.2694 45.7731 47.4605 46.232 47.8008 46.5704C48.141 46.9087 48.6025 47.0988 49.0837 47.0988Z" fill="white"/>
<path d="M42.9605 49.3957C43.4417 49.3957 43.9031 49.2056 44.2434 48.8673C44.5836 48.5289 44.7748 48.07 44.7748 47.5914V44.1885C44.7748 43.71 44.5836 43.251 44.2434 42.9127C43.9031 42.5743 43.4417 42.3842 42.9605 42.3842C42.4793 42.3842 42.0178 42.5743 41.6776 42.9127C41.3373 43.251 41.1462 43.71 41.1462 44.1885V47.5932C41.1467 48.0714 41.338 48.5299 41.6782 48.8679C42.0184 49.2059 42.4796 49.3957 42.9605 49.3957Z" fill="white"/>
<path d="M55.2105 58.3234C55.6917 58.3234 56.1532 58.1333 56.4934 57.7949C56.8337 57.4566 57.0248 56.9976 57.0248 56.5191V53.1144C57.0248 52.6359 56.8337 52.1769 56.4934 51.8386C56.1532 51.5002 55.6917 51.3101 55.2105 51.3101C54.7294 51.3101 54.2679 51.5002 53.9276 51.8386C53.5874 52.1769 53.3962 52.6359 53.3962 53.1144V56.5191C53.3962 56.9976 53.5874 57.4566 53.9276 57.7949C54.2679 58.1333 54.7294 58.3234 55.2105 58.3234Z" fill="white"/>
<path d="M49.0837 60.6221C49.5649 60.6221 50.0263 60.432 50.3666 60.0936C50.7068 59.7552 50.898 59.2963 50.898 58.8178V55.4131C50.898 54.9345 50.7068 54.4756 50.3666 54.1372C50.0263 53.7989 49.5649 53.6088 49.0837 53.6088C48.6025 53.6088 48.141 53.7989 47.8008 54.1372C47.4605 54.4756 47.2694 54.9345 47.2694 55.4131V58.8178C47.2694 59.2963 47.4605 59.7552 47.8008 60.0936C48.141 60.432 48.6025 60.6221 49.0837 60.6221Z" fill="white"/>
<path d="M42.9605 62.9208C43.4417 62.9208 43.9031 62.7307 44.2434 62.3923C44.5836 62.0539 44.7748 61.595 44.7748 61.1165V57.7118C44.7748 57.2332 44.5836 56.7743 44.2434 56.4359C43.9031 56.0975 43.4417 55.9074 42.9605 55.9074C42.4793 55.9074 42.0178 56.0975 41.6776 56.4359C41.3373 56.7743 41.1462 57.2332 41.1462 57.7118V61.1165C41.1462 61.595 41.3373 62.0539 41.6776 62.3923C42.0178 62.7307 42.4793 62.9208 42.9605 62.9208Z" fill="white"/>
<path d="M55.2105 71.8466C55.6917 71.8466 56.1532 71.6565 56.4934 71.3182C56.8337 70.9798 57.0248 70.5209 57.0248 70.0424V66.6467C57.0248 66.1681 56.8337 65.7092 56.4934 65.3708C56.1532 65.0324 55.6917 64.8423 55.2105 64.8423C54.7294 64.8423 54.2679 65.0324 53.9276 65.3708C53.5874 65.7092 53.3962 66.1681 53.3962 66.6467V70.0514C53.3986 70.5283 53.5909 70.985 53.9308 71.3214C54.2708 71.6578 54.7309 71.8467 55.2105 71.8466Z" fill="white"/>
<path d="M49.0837 74.1453C49.5649 74.1453 50.0263 73.9552 50.3666 73.6169C50.7068 73.2785 50.898 72.8196 50.898 72.341V68.9363C50.898 68.4578 50.7068 67.9988 50.3666 67.6605C50.0263 67.3221 49.5649 67.132 49.0837 67.132C48.6025 67.132 48.141 67.3221 47.8008 67.6605C47.4605 67.9988 47.2694 68.4578 47.2694 68.9363V72.341C47.2694 72.8196 47.4605 73.2785 47.8008 73.6169C48.141 73.9552 48.6025 74.1453 49.0837 74.1453Z" fill="white"/>
<path d="M42.9605 76.444C43.4417 76.444 43.9031 76.2539 44.2434 75.9155C44.5836 75.5772 44.7748 75.1182 44.7748 74.6397V71.235C44.7748 70.7565 44.5836 70.2975 44.2434 69.9591C43.9031 69.6208 43.4417 69.4307 42.9605 69.4307C42.4793 69.4307 42.0178 69.6208 41.6776 69.9591C41.3373 70.2975 41.1462 70.7565 41.1462 71.235V74.6397C41.1462 75.1182 41.3373 75.5772 41.6776 75.9155C42.0178 76.2539 42.4793 76.444 42.9605 76.444Z" fill="white"/>
<path d="M55.2105 85.3699C55.6917 85.3699 56.1532 85.1798 56.4934 84.8414C56.8337 84.503 57.0248 84.0441 57.0248 83.5656V80.1609C57.0248 79.6823 56.8337 79.2234 56.4934 78.885C56.1532 78.5467 55.6917 78.3566 55.2105 78.3566C54.7294 78.3566 54.2679 78.5467 53.9276 78.885C53.5874 79.2234 53.3962 79.6823 53.3962 80.1609V83.5656C53.3962 84.0441 53.5874 84.503 53.9276 84.8414C54.2679 85.1798 54.7294 85.3699 55.2105 85.3699Z" fill="white"/>
<path d="M49.0837 87.6686C49.5649 87.6686 50.0263 87.4785 50.3666 87.1401C50.7068 86.8017 50.898 86.3428 50.898 85.8643V82.4595C50.898 81.981 50.7068 81.5221 50.3666 81.1837C50.0263 80.8453 49.5649 80.6552 49.0837 80.6552C48.6025 80.6552 48.141 80.8453 47.8008 81.1837C47.4605 81.5221 47.2694 81.981 47.2694 82.4595V85.8643C47.2694 86.3428 47.4605 86.8017 47.8008 87.1401C48.141 87.4785 48.6025 87.6686 49.0837 87.6686Z" fill="white"/>
<path d="M42.9605 89.9672C43.4417 89.9672 43.9031 89.7771 44.2434 89.4388C44.5836 89.1004 44.7748 88.6415 44.7748 88.1629V84.7582C44.7748 84.2797 44.5836 83.8208 44.2434 83.4824C43.9031 83.144 43.4417 82.9539 42.9605 82.9539C42.4793 82.9539 42.0178 83.144 41.6776 83.4824C41.3373 83.8208 41.1462 84.2797 41.1462 84.7582V88.1629C41.1462 88.6415 41.3373 89.1004 41.6776 89.4388C42.0178 89.7771 42.4793 89.9672 42.9605 89.9672Z" fill="white"/>
<path d="M55.2105 98.8931C55.6917 98.8931 56.1532 98.703 56.4934 98.3646C56.8337 98.0263 57.0248 97.5674 57.0248 97.0888V93.6841C57.0248 93.2056 56.8337 92.7466 56.4934 92.4083C56.1532 92.0699 55.6917 91.8798 55.2105 91.8798C54.7294 91.8798 54.2679 92.0699 53.9276 92.4083C53.5874 92.7466 53.3962 93.2056 53.3962 93.6841V97.0888C53.3962 97.5674 53.5874 98.0263 53.9276 98.3646C54.2679 98.703 54.7294 98.8931 55.2105 98.8931Z" fill="white"/>
<path d="M49.0837 101.192C49.5649 101.192 50.0263 101.002 50.3666 100.663C50.7068 100.325 50.898 99.866 50.898 99.3875V95.9828C50.898 95.5042 50.7068 95.0453 50.3666 94.7069C50.0263 94.3686 49.5649 94.1785 49.0837 94.1785C48.6025 94.1785 48.141 94.3686 47.8008 94.7069C47.4605 95.0453 47.2694 95.5042 47.2694 95.9828V99.3875C47.2694 99.866 47.4605 100.325 47.8008 100.663C48.141 101.002 48.6025 101.192 49.0837 101.192Z" fill="white"/>
<path d="M42.9605 103.49C43.4417 103.49 43.9031 103.3 44.2434 102.962C44.5836 102.624 44.7748 102.165 44.7748 101.686V98.2815C44.7748 97.8029 44.5836 97.344 44.2434 97.0056C43.9031 96.6673 43.4417 96.4772 42.9605 96.4772C42.4793 96.4772 42.0178 96.6673 41.6776 97.0056C41.3373 97.344 41.1462 97.8029 41.1462 98.2815V101.686C41.1462 102.165 41.3373 102.624 41.6776 102.962C42.0178 103.3 42.4793 103.49 42.9605 103.49Z" fill="white"/>
<path d="M20.0134 56.0915C20.4946 56.0915 20.956 55.9014 21.2963 55.563C21.6365 55.2246 21.8277 54.7657 21.8277 54.2872V52.463C21.8277 51.9845 21.6365 51.5256 21.2963 51.1872C20.956 50.8488 20.4946 50.6587 20.0134 50.6587C19.5322 50.6587 19.0707 50.8488 18.7305 51.1872C18.3902 51.5256 18.1991 51.9845 18.1991 52.463V54.2872C18.1991 54.7657 18.3902 55.2246 18.7305 55.563C19.0707 55.9014 19.5322 56.0915 20.0134 56.0915Z" fill="white"/>
<path d="M13.8992 59.913C14.3804 59.913 14.8419 59.7229 15.1821 59.3845C15.5224 59.0462 15.7135 58.5872 15.7135 58.1087V56.2845C15.7135 55.806 15.5224 55.3471 15.1821 55.0087C14.8419 54.6703 14.3804 54.4802 13.8992 54.4802C13.4181 54.4802 12.9566 54.6703 12.6163 55.0087C12.2761 55.3471 12.085 55.806 12.085 56.2845V58.1087C12.085 58.5872 12.2761 59.0462 12.6163 59.3845C12.9566 59.7229 13.4181 59.913 13.8992 59.913Z" fill="white"/>
<path d="M20.0134 65.0011C20.4946 65.0011 20.956 64.811 21.2963 64.4727C21.6365 64.1343 21.8277 63.6754 21.8277 63.1968V61.3745C21.8277 60.8959 21.6365 60.437 21.2963 60.0986C20.956 59.7603 20.4946 59.5702 20.0134 59.5702C19.5322 59.5702 19.0707 59.7603 18.7305 60.0986C18.3902 60.437 18.1991 60.8959 18.1991 61.3745V63.1986C18.1996 63.6768 18.3909 64.1353 18.7311 64.4733C19.0713 64.8113 19.5325 65.0011 20.0134 65.0011Z" fill="white"/>
<path d="M13.8992 68.8226C14.3804 68.8226 14.8419 68.6325 15.1821 68.2942C15.5224 67.9558 15.7135 67.4969 15.7135 67.0183V65.2032C15.7135 64.7247 15.5224 64.2657 15.1821 63.9274C14.8419 63.589 14.3804 63.3989 13.8992 63.3989C13.4181 63.3989 12.9566 63.589 12.6163 63.9274C12.2761 64.2657 12.085 64.7247 12.085 65.2032V67.0274C12.0874 67.5043 12.2796 67.9609 12.6196 68.2974C12.9595 68.6338 13.4196 68.8226 13.8992 68.8226Z" fill="white"/>
<path d="M20.0134 73.9126C20.4946 73.9126 20.956 73.7225 21.2963 73.3841C21.6365 73.0457 21.8277 72.5868 21.8277 72.1083V70.2841C21.8277 69.8056 21.6365 69.3467 21.2963 69.0083C20.956 68.6699 20.4946 68.4798 20.0134 68.4798C19.5322 68.4798 19.0707 68.6699 18.7305 69.0083C18.3902 69.3467 18.1991 69.8056 18.1991 70.2841V72.1083C18.1991 72.5868 18.3902 73.0457 18.7305 73.3841C19.0707 73.7225 19.5322 73.9126 20.0134 73.9126Z" fill="white"/>
<path d="M13.8992 77.7341C14.3804 77.7341 14.8419 77.544 15.1821 77.2056C15.5224 76.8672 15.7135 76.4083 15.7135 75.9298V74.1056C15.7135 73.6271 15.5224 73.1682 15.1821 72.8298C14.8419 72.4914 14.3804 72.3013 13.8992 72.3013C13.4181 72.3013 12.9566 72.4914 12.6163 72.8298C12.2761 73.1682 12.085 73.6271 12.085 74.1056V75.9298C12.085 76.4083 12.2761 76.8672 12.6163 77.2056C12.9566 77.544 13.4181 77.7341 13.8992 77.7341Z" fill="white"/>
<path d="M20.0134 82.824C20.4946 82.824 20.956 82.6339 21.2963 82.2956C21.6365 81.9572 21.8277 81.4982 21.8277 81.0197V79.1956C21.8277 78.717 21.6365 78.2581 21.2963 77.9197C20.956 77.5814 20.4946 77.3913 20.0134 77.3913C19.5322 77.3913 19.0707 77.5814 18.7305 77.9197C18.3902 78.2581 18.1991 78.717 18.1991 79.1956V81.0197C18.1991 81.4982 18.3902 81.9572 18.7305 82.2956C19.0707 82.6339 19.5322 82.824 20.0134 82.824Z" fill="white"/>
<path d="M13.8992 86.6437C14.3804 86.6437 14.8419 86.4536 15.1821 86.1152C15.5224 85.7769 15.7135 85.3179 15.7135 84.8394V83.0153C15.7135 82.5367 15.5224 82.0778 15.1821 81.7394C14.8419 81.4011 14.3804 81.211 13.8992 81.211C13.4181 81.211 12.9566 81.4011 12.6163 81.7394C12.2761 82.0778 12.085 82.5367 12.085 83.0153V84.8394C12.085 85.3179 12.2761 85.7769 12.6163 86.1152C12.9566 86.4536 13.4181 86.6437 13.8992 86.6437Z" fill="white"/>
<path d="M20.0134 91.7264C20.4946 91.7264 20.956 91.5363 21.2963 91.198C21.6365 90.8596 21.8277 90.4007 21.8277 89.9221V88.1052C21.8277 87.6267 21.6365 87.1677 21.2963 86.8294C20.956 86.491 20.4946 86.3009 20.0134 86.3009C19.5322 86.3009 19.0707 86.491 18.7305 86.8294C18.3902 87.1677 18.1991 87.6267 18.1991 88.1052V89.9221C18.1991 90.4007 18.3902 90.8596 18.7305 91.198C19.0707 91.5363 19.5322 91.7264 20.0134 91.7264Z" fill="white"/>
<path d="M13.8992 95.5552C14.3804 95.5552 14.8419 95.3651 15.1821 95.0267C15.5224 94.6883 15.7135 94.2294 15.7135 93.7509V91.9267C15.7135 91.4482 15.5224 90.9893 15.1821 90.6509C14.8419 90.3125 14.3804 90.1224 13.8992 90.1224C13.4181 90.1224 12.9566 90.3125 12.6163 90.6509C12.2761 90.9893 12.085 91.4482 12.085 91.9267V93.7509C12.085 94.2294 12.2761 94.6883 12.6163 95.0267C12.9566 95.3651 13.4181 95.5552 13.8992 95.5552Z" fill="white"/>
<path d="M20.0134 100.645C20.4946 100.645 20.956 100.455 21.2963 100.117C21.6365 99.7783 21.8277 99.3193 21.8277 98.8408V97.0166C21.8277 96.5381 21.6365 96.0792 21.2963 95.7408C20.956 95.4024 20.4946 95.2123 20.0134 95.2123C19.5322 95.2123 19.0707 95.4024 18.7305 95.7408C18.3902 96.0792 18.1991 96.5381 18.1991 97.0166V98.8408C18.1991 99.3193 18.3902 99.7783 18.7305 100.117C19.0707 100.455 19.5322 100.645 20.0134 100.645Z" fill="white"/>
<path d="M13.8992 104.465C14.3804 104.465 14.8419 104.275 15.1821 103.936C15.5224 103.598 15.7135 103.139 15.7135 102.661V100.836C15.7135 100.358 15.5224 99.8989 15.1821 99.5605C14.8419 99.2222 14.3804 99.0321 13.8992 99.0321C13.4181 99.0321 12.9566 99.2222 12.6163 99.5605C12.2761 99.8989 12.085 100.358 12.085 100.836V102.661C12.085 103.139 12.2761 103.598 12.6163 103.936C12.9566 104.275 13.4181 104.465 13.8992 104.465Z" fill="white"/>
<path d="M1.81429 110.971H125.186C125.667 110.971 126.128 110.781 126.469 110.443C126.809 110.104 127 109.645 127 109.167C127 108.688 126.809 108.229 126.469 107.891C126.128 107.553 125.667 107.363 125.186 107.363H1.81429C1.33311 107.363 0.871628 107.553 0.531387 107.891C0.191139 108.229 0 108.688 0 109.167C0 109.645 0.191139 110.104 0.531387 110.443C0.871628 110.781 1.33311 110.971 1.81429 110.971Z" fill="white"/>
</svg>
