<svg width="111" height="111" viewBox="0 0 111 111" fill="none" xmlns="http://www.w3.org/2000/svg">
<path d="M30.6285 5.62025C28.7042 5.62298 26.8595 6.38875 25.4989 7.74964C24.1384 9.11052 23.3731 10.9554 23.3709 12.8797C23.3709 13.3145 23.5436 13.7314 23.851 14.0389C24.1584 14.3463 24.5754 14.519 25.0101 14.519C25.4449 14.519 25.8618 14.3463 26.1692 14.0389C26.4767 13.7314 26.6494 13.3145 26.6494 12.8797C26.6504 11.8242 27.0701 10.8122 27.8165 10.0658C28.5628 9.31947 29.5749 8.89973 30.6304 8.89873H41.2986C41.7333 8.89873 42.1503 8.72603 42.4577 8.41861C42.7651 8.11119 42.9378 7.69425 42.9378 7.25949C42.9378 6.82474 42.7651 6.40779 42.4577 6.10038C42.1503 5.79296 41.7333 5.62025 41.2986 5.62025H30.6285Z" fill="#3498DB"/>
<path d="M51.119 5.62025H48.2152C47.7805 5.62025 47.3635 5.79296 47.0561 6.10038C46.7487 6.40779 46.576 6.82474 46.576 7.25949C46.576 7.69425 46.7487 8.11119 47.0561 8.41861C47.3635 8.72603 47.7805 8.89873 48.2152 8.89873H51.119C51.5538 8.89873 51.9707 8.72603 52.2781 8.41861C52.5855 8.11119 52.7583 7.69425 52.7583 7.25949C52.7583 6.82474 52.5855 6.40779 52.2781 6.10038C51.9707 5.79296 51.5538 5.62025 51.119 5.62025Z" fill="#3498DB"/>
<path d="M42.1182 3.27848H51.119C51.5538 3.27848 51.9707 3.10578 52.2781 2.79836C52.5855 2.49094 52.7583 2.07399 52.7583 1.63924C52.7583 1.20449 52.5855 0.78754 52.2781 0.480123C51.9707 0.172705 51.5538 0 51.119 0H42.1182C41.6834 0 41.2665 0.172705 40.9591 0.480123C40.6516 0.78754 40.4789 1.20449 40.4789 1.63924C40.4789 2.07399 40.6516 2.49094 40.9591 2.79836C41.2665 3.10578 41.6834 3.27848 42.1182 3.27848Z" fill="#3498DB"/>
<path d="M19.388 14.519C19.6035 14.5194 19.8169 14.4772 20.016 14.395C20.2152 14.3128 20.3962 14.1921 20.5486 14.0398C20.701 13.8875 20.822 13.7067 20.9044 13.5076C20.9869 13.3086 21.0292 13.0952 21.0291 12.8797C21.0318 10.3345 22.044 7.89424 23.8436 6.0943C25.6432 4.29436 28.0833 3.2817 30.6285 3.27848H34.9561C35.3909 3.27848 35.8078 3.10578 36.1152 2.79836C36.4226 2.49094 36.5953 2.07399 36.5953 1.63924C36.5953 1.20449 36.4226 0.78754 36.1152 0.480123C35.8078 0.172705 35.3909 0 34.9561 0H30.6285C27.2141 0.00421489 23.9407 1.3626 21.5265 3.77716C19.1123 6.19172 17.7544 9.46529 17.7506 12.8797C17.7505 13.0949 17.7928 13.308 17.875 13.5068C17.9572 13.7056 18.0778 13.8863 18.2298 14.0385C18.3819 14.1907 18.5624 14.3115 18.7611 14.3939C18.9598 14.4764 19.1729 14.5189 19.388 14.519Z" fill="#3498DB"/>
<path d="M73.2722 5.62025C71.3475 5.62248 69.5023 6.38804 68.1414 7.74897C66.7805 9.10991 66.0149 10.9551 66.0127 12.8797C66.0127 13.3145 66.1854 13.7314 66.4928 14.0389C66.8002 14.3463 67.2172 14.519 67.6519 14.519C68.0867 14.519 68.5036 14.3463 68.811 14.0389C69.1185 13.7314 69.2912 13.3145 69.2912 12.8797C69.2922 11.8242 69.7119 10.8122 70.4583 10.0658C71.2046 9.31947 72.2167 8.89973 73.2722 8.89873H78.2152C78.6499 8.89873 79.0669 8.72603 79.3743 8.41861C79.6817 8.11119 79.8544 7.69425 79.8544 7.25949C79.8544 6.82474 79.6817 6.40779 79.3743 6.10038C79.0669 5.79296 78.6499 5.62025 78.2152 5.62025H73.2722Z" fill="#3498DB"/>
<path d="M83.4842 7.25949C83.4841 7.4748 83.5264 7.68801 83.6087 7.88695C83.691 8.08589 83.8118 8.26664 83.964 8.41889C84.1163 8.57113 84.297 8.69187 84.496 8.77421C84.6949 8.85654 84.9081 8.89886 85.1234 8.89873H93.7627C94.1974 8.89873 94.6144 8.72603 94.9218 8.41861C95.2292 8.11119 95.4019 7.69425 95.4019 7.25949C95.4019 6.82474 95.2292 6.40779 94.9218 6.10038C94.6144 5.79296 94.1974 5.62025 93.7627 5.62025H85.1234C84.9081 5.62013 84.6949 5.66245 84.496 5.74478C84.297 5.82712 84.1163 5.94786 83.964 6.1001C83.8118 6.25234 83.691 6.4331 83.6087 6.63204C83.5264 6.83098 83.4841 7.04419 83.4842 7.25949Z" fill="#3498DB"/>
<path d="M91.5043 3.27848H93.7627C94.1974 3.27848 94.6144 3.10578 94.9218 2.79836C95.2292 2.49094 95.4019 2.07399 95.4019 1.63924C95.4019 1.20449 95.2292 0.78754 94.9218 0.480123C94.6144 0.172705 94.1974 0 93.7627 0H91.5043C91.0695 0 90.6526 0.172705 90.3452 0.480123C90.0377 0.78754 89.865 1.20449 89.865 1.63924C89.865 2.07399 90.0377 2.49094 90.3452 2.79836C90.6526 3.10578 91.0695 3.27848 91.5043 3.27848Z" fill="#3498DB"/>
<path d="M62.0317 14.519C62.4664 14.519 62.8834 14.3463 63.1908 14.0389C63.4982 13.7314 63.6709 13.3145 63.6709 12.8797C63.6736 10.3342 64.6861 7.89363 66.4861 6.09364C68.2861 4.29364 70.7266 3.28121 73.2722 3.27848H82.4885C82.9232 3.27848 83.3402 3.10578 83.6476 2.79836C83.955 2.49094 84.1277 2.07399 84.1277 1.63924C84.1277 1.20449 83.955 0.78754 83.6476 0.480123C83.3402 0.172705 82.9232 0 82.4885 0H73.2722C69.8574 0.00371913 66.5835 1.36188 64.1689 3.7765C61.7543 6.19111 60.3961 9.46497 60.3924 12.8797C60.3923 13.095 60.4346 13.3083 60.517 13.5072C60.5993 13.7061 60.72 13.8869 60.8723 14.0391C61.0245 14.1914 61.2053 14.3121 61.4042 14.3945C61.6031 14.4768 61.8164 14.5191 62.0317 14.519Z" fill="#3498DB"/>
<path d="M98.1203 54.3151C97.6855 54.3151 97.2686 54.4878 96.9611 54.7952C96.6537 55.1026 96.481 55.5196 96.481 55.9543V61.5746C96.481 62.0093 96.6537 62.4263 96.9611 62.7337C97.2686 63.0411 97.6855 63.2138 98.1203 63.2138C98.555 63.2138 98.972 63.0411 99.2794 62.7337C99.5868 62.4263 99.7595 62.0093 99.7595 61.5746V55.9543C99.7595 55.5196 99.5868 55.1026 99.2794 54.7952C98.972 54.4878 98.555 54.3151 98.1203 54.3151Z" fill="#3498DB"/>
<path d="M109.361 102.101H105.38V43.9316L109.557 43.4296C109.98 43.3686 110.363 43.1442 110.624 42.8044C110.884 42.4646 111.002 42.0363 110.95 41.6112C110.899 41.1861 110.684 40.7979 110.35 40.5296C110.017 40.2613 109.591 40.1342 109.165 40.1754L75.7779 44.1864L74.8786 25.3249C75.1671 25.1961 75.4121 24.9866 75.5842 24.7217C75.7562 24.4567 75.8479 24.1476 75.8481 23.8317V18.2115C75.8479 17.7768 75.6751 17.36 75.3677 17.0526C75.0604 16.7453 74.6436 16.5725 74.2089 16.5723H55.4747C55.04 16.5723 54.623 16.745 54.3156 17.0524C54.0082 17.3598 53.8355 17.7767 53.8355 18.2115V23.8317C53.8349 24.149 53.9267 24.4596 54.0994 24.7257C54.2722 24.9918 54.5187 25.2019 54.8087 25.3305L53.7877 46.8336L33.374 49.284L32.2387 25.323C32.5266 25.1942 32.7711 24.9849 32.9428 24.7203C33.1145 24.4557 33.206 24.1471 33.2063 23.8317V18.2115C33.2063 17.7767 33.0336 17.3598 32.7262 17.0524C32.4188 16.745 32.0018 16.5723 31.5671 16.5723H12.8329C12.3982 16.5723 11.9812 16.745 11.6738 17.0524C11.3664 17.3598 11.1937 17.7767 11.1937 18.2115V23.8317C11.1937 24.1495 11.2861 24.4604 11.4598 24.7265C11.6334 24.9927 11.8807 25.2025 12.1716 25.3305L9.18068 88.0506H7.93392C7.51279 88.0506 7.10781 88.2127 6.80296 88.5033C6.49811 88.7938 6.31677 89.1905 6.29656 89.6112L5.69706 102.101H1.63924C1.42394 102.101 1.21072 102.143 1.01179 102.226C0.812848 102.308 0.63209 102.429 0.479848 102.581C0.327606 102.733 0.206865 102.914 0.124529 103.113C0.0421934 103.312 -0.000122868 103.525 2.67962e-07 103.741V109.361C-0.000122868 109.576 0.0421934 109.789 0.124529 109.988C0.206865 110.187 0.327606 110.368 0.479848 110.52C0.63209 110.672 0.812848 110.793 1.01179 110.875C1.21072 110.958 1.42394 111 1.63924 111H109.361C109.576 111 109.789 110.958 109.988 110.875C110.187 110.793 110.368 110.672 110.52 110.52C110.672 110.368 110.793 110.187 110.875 109.988C110.958 109.789 111 109.576 111 109.361V103.741C111 103.525 110.958 103.312 110.875 103.113C110.793 102.914 110.672 102.733 110.52 102.581C110.368 102.429 110.187 102.308 109.988 102.226C109.789 102.143 109.576 102.101 109.361 102.101ZM92.9037 102.101V85.0063C92.9037 84.5716 92.731 84.1546 92.4236 83.8472C92.1162 83.5398 91.6992 83.3671 91.2645 83.3671H80.024C79.8087 83.367 79.5955 83.4093 79.3965 83.4916C79.1976 83.574 79.0168 83.6947 78.8646 83.8469C78.7123 83.9992 78.5916 84.1799 78.5093 84.3789C78.4269 84.5778 78.3846 84.791 78.3847 85.0063V102.101H75.8556V85.0063C75.8556 84.5716 75.6829 84.1546 75.3755 83.8472C75.0681 83.5398 74.6511 83.3671 74.2164 83.3671H62.9759C62.7606 83.367 62.5474 83.4093 62.3484 83.4916C62.1495 83.574 61.9687 83.6947 61.8165 83.8469C61.6642 83.9992 61.5435 84.1799 61.4612 84.3789C61.3788 84.5778 61.3365 84.791 61.3366 85.0063V102.101H23.8392V53.7324L102.101 44.3269V102.101H92.9037ZM89.6252 102.101H81.6632V86.6456H89.6252V102.101ZM72.5771 102.101H64.6151V86.6456H72.5771V102.101ZM57.1214 19.8507H72.5771V22.1925H57.1214V19.8507ZM58.0919 25.471H71.6039L72.5144 44.5798L57.0924 46.4336L58.0919 25.471ZM14.4778 19.8507H29.9278V22.1925H14.4722L14.4778 19.8507ZM15.4529 25.471H28.964L30.1096 49.6755L16.3821 51.327C15.9682 51.3777 15.5892 51.5842 15.3222 51.9046C15.0552 52.2249 14.9204 52.6349 14.9451 53.0512C14.9698 53.4674 15.1522 53.8586 15.4552 54.1451C15.7582 54.4316 16.159 54.5919 16.576 54.5933C16.642 54.5932 16.708 54.5895 16.7736 54.582L20.5608 54.1259V88.0506H12.4629L15.4529 25.471ZM9.49635 91.3291H20.5608V102.101H8.97929L9.49635 91.3291ZM107.722 107.722H3.27848V105.38H107.722V107.722Z" fill="#3498DB"/>
<path d="M52.1728 77.9033H33.4386C33.0039 77.9033 32.5869 78.076 32.2795 78.3834C31.9721 78.6908 31.7994 79.1077 31.7994 79.5425C31.7994 79.9773 31.9721 80.3942 32.2795 80.7016C32.5869 81.009 33.0039 81.1817 33.4386 81.1817H52.1728C52.6076 81.1817 53.0245 81.009 53.3319 80.7016C53.6393 80.3942 53.8121 79.9773 53.8121 79.5425C53.8121 79.1077 53.6393 78.6908 53.3319 78.3834C53.0245 78.076 52.6076 77.9033 52.1728 77.9033Z" fill="#3498DB"/>
<path d="M52.1728 66.6628H33.4386C33.0039 66.6628 32.5869 66.8355 32.2795 67.1429C31.9721 67.4503 31.7994 67.8672 31.7994 68.302C31.7994 68.7368 31.9721 69.1537 32.2795 69.4611C32.5869 69.7685 33.0039 69.9412 33.4386 69.9412H52.1728C52.6076 69.9412 53.0245 69.7685 53.3319 69.4611C53.6393 69.1537 53.8121 68.7368 53.8121 68.302C53.8121 67.8672 53.6393 67.4503 53.3319 67.1429C53.0245 66.8355 52.6076 66.6628 52.1728 66.6628Z" fill="#3498DB"/>
<path d="M52.1728 72.283H33.4386C33.0039 72.283 32.5869 72.4557 32.2795 72.7631C31.9721 73.0706 31.7994 73.4875 31.7994 73.9223C31.7994 74.357 31.9721 74.7739 32.2795 75.0814C32.5869 75.3888 33.0039 75.5615 33.4386 75.5615H52.1728C52.6076 75.5615 53.0245 75.3888 53.3319 75.0814C53.6393 74.7739 53.8121 74.357 53.8121 73.9223C53.8121 73.4875 53.6393 73.0706 53.3319 72.7631C53.0245 72.4557 52.6076 72.283 52.1728 72.283Z" fill="#3498DB"/>
<path d="M71.4034 69.4729H65.7832C65.5679 69.4728 65.3547 69.5151 65.1557 69.5974C64.9568 69.6797 64.776 69.8005 64.6238 69.9527C64.4716 70.105 64.3508 70.2857 64.2685 70.4847C64.1861 70.6836 64.1438 70.8968 64.1439 71.1121V76.7324C64.1438 76.9477 64.1861 77.1609 64.2685 77.3598C64.3508 77.5588 64.4716 77.7395 64.6238 77.8918C64.776 78.044 64.9568 78.1648 65.1557 78.2471C65.3547 78.3294 65.5679 78.3717 65.7832 78.3716H71.4034C71.8382 78.3716 72.2551 78.1989 72.5626 77.8915C72.87 77.5841 73.0427 77.1671 73.0427 76.7324V71.1121C73.0427 70.6774 72.87 70.2604 72.5626 69.953C72.2551 69.6456 71.8382 69.4729 71.4034 69.4729ZM69.7642 75.0931H67.4224V72.7514H69.7642V75.0931Z" fill="#3498DB"/>
<path d="M88.4544 69.4729H82.8341C82.6188 69.4728 82.4056 69.5151 82.2066 69.5974C82.0077 69.6797 81.827 69.8005 81.6747 69.9527C81.5225 70.105 81.4017 70.2857 81.3194 70.4847C81.2371 70.6836 81.1947 70.8968 81.1949 71.1121V76.7324C81.1947 76.9477 81.2371 77.1609 81.3194 77.3598C81.4017 77.5588 81.5225 77.7395 81.6747 77.8918C81.827 78.044 82.0077 78.1648 82.2066 78.2471C82.4056 78.3294 82.6188 78.3717 82.8341 78.3716H88.4544C88.8891 78.3716 89.3061 78.1989 89.6135 77.8915C89.9209 77.5841 90.0936 77.1671 90.0936 76.7324V71.1121C90.0936 70.6774 89.9209 70.2604 89.6135 69.953C89.3061 69.6456 88.8891 69.4729 88.4544 69.4729ZM86.8151 75.0931H84.4733V72.7514H86.8151V75.0931Z" fill="#3498DB"/>
</svg>
