<svg width="112" height="112" viewBox="0 0 112 112" fill="none" xmlns="http://www.w3.org/2000/svg">
<path d="M110.133 22.4H77.6067L66.7184 3.73335H68.6933L103.813 18.5211C104.269 18.7132 104.783 18.7161 105.242 18.5291C105.701 18.3422 106.066 17.9807 106.258 17.5243C106.45 17.0678 106.453 16.5538 106.266 16.0952C106.079 15.6366 105.718 15.271 105.261 15.0789L69.7947 0.145618C69.5643 0.0484376 69.3167 -0.00109117 69.0667 1.8233e-05H42.9333C42.6846 -0.000588129 42.4383 0.0489306 42.2091 0.145618L6.7424 15.0789C6.40372 15.2215 6.11465 15.4609 5.91143 15.7671C5.70821 16.0732 5.59987 16.4325 5.6 16.8V22.4H1.86667C1.3716 22.4 0.896802 22.5967 0.546734 22.9467C0.196666 23.2968 0 23.7716 0 24.2667V31.7333C0 32.2284 0.196666 32.7032 0.546734 33.0533C0.896802 33.4033 1.3716 33.6 1.86667 33.6V42.9333C1.86101 44.8959 2.47599 46.81 3.62368 48.4019C4.77138 49.9939 6.39302 51.1822 8.25677 51.7971C10.1205 52.4119 12.1309 52.4217 14.0006 51.8252C15.8703 51.2286 17.5035 50.0561 18.6667 48.4755C19.5251 49.6504 20.6488 50.6061 21.9462 51.265C23.2436 51.9239 24.6782 52.2673 26.1333 52.2673C27.5885 52.2673 29.0231 51.9239 30.3205 51.265C31.6179 50.6061 32.7415 49.6504 33.6 48.4755C34.4585 49.6504 35.5821 50.6061 36.8795 51.265C38.1769 51.9239 39.6115 52.2673 41.0667 52.2673C42.5218 52.2673 43.9564 51.9239 45.2538 51.265C46.5512 50.6061 47.6749 49.6504 48.5333 48.4755C49.3918 49.6504 50.5154 50.6061 51.8129 51.265C53.1103 51.9239 54.5449 52.2673 56 52.2673C57.4551 52.2673 58.8897 51.9239 60.1871 51.265C61.4846 50.6061 62.6082 49.6504 63.4667 48.4755C64.3251 49.6504 65.4488 50.6061 66.7462 51.265C68.0436 51.9239 69.4782 52.2673 70.9333 52.2673C72.3885 52.2673 73.8231 51.9239 75.1205 51.265C76.4179 50.6061 77.5415 49.6504 78.4 48.4755C79.2585 49.6504 80.3821 50.6061 81.6795 51.265C82.9769 51.9239 84.4115 52.2673 85.8667 52.2673C87.3218 52.2673 88.7564 51.9239 90.0538 51.265C91.3512 50.6061 92.4749 49.6504 93.3333 48.4755C94.1948 49.6472 95.319 50.6006 96.6158 51.259C97.9126 51.9175 99.3457 52.2626 100.8 52.2667V108.267H51.3333V69.0667C51.3333 68.5716 51.1367 68.0968 50.7866 67.7467C50.4365 67.3967 49.9617 67.2 49.4667 67.2H18.6667C18.1716 67.2 17.6968 67.3967 17.3467 67.7467C16.9967 68.0968 16.8 68.5716 16.8 69.0667V108.267H11.2V57.6016C11.2 57.1065 11.0033 56.6317 10.6533 56.2817C10.3032 55.9316 9.8284 55.7349 9.33333 55.7349C8.83826 55.7349 8.36347 55.9316 8.0134 56.2817C7.66333 56.6317 7.46667 57.1065 7.46667 57.6016V110.133C7.46667 110.628 7.66333 111.103 8.0134 111.453C8.36347 111.803 8.83826 112 9.33333 112H102.667C103.162 112 103.637 111.803 103.987 111.453C104.337 111.103 104.533 110.628 104.533 110.133V51.4752C106.196 50.7496 107.611 49.5553 108.605 48.0383C109.6 46.5213 110.131 44.7473 110.133 42.9333V39.2C110.133 38.7049 109.937 38.2301 109.587 37.8801C109.237 37.53 108.762 37.3333 108.267 37.3333C107.772 37.3333 107.297 37.53 106.947 37.8801C106.597 38.2301 106.4 38.7049 106.4 39.2V42.9333C106.4 44.4186 105.81 45.8429 104.76 46.8931C103.71 47.9433 102.285 48.5333 100.8 48.5333C99.3148 48.5333 97.8904 47.9433 96.8402 46.8931C95.79 45.8429 95.2 44.4186 95.2 42.9333V33.6H110.133C110.628 33.6 111.103 33.4033 111.453 33.0533C111.803 32.7032 112 32.2284 112 31.7333V24.2667C112 23.7716 111.803 23.2968 111.453 22.9467C111.103 22.5967 110.628 22.4 110.133 22.4ZM20.5333 108.267V70.9333H47.6V108.267H20.5333ZM62.3952 3.73335L73.2835 22.4H38.7165L49.6048 3.73335H62.3952ZM9.33333 18.0395L43.3067 3.73335H45.2779L34.3933 22.4H9.33333V18.0395ZM11.2 48.5333C9.71479 48.5333 8.29041 47.9433 7.2402 46.8931C6.19 45.8429 5.6 44.4186 5.6 42.9333V33.6H16.8V42.9333C16.8 44.4186 16.21 45.8429 15.1598 46.8931C14.1096 47.9433 12.6852 48.5333 11.2 48.5333ZM26.1333 48.5333C24.6481 48.5333 23.2237 47.9433 22.1735 46.8931C21.1233 45.8429 20.5333 44.4186 20.5333 42.9333V33.6H31.7333V42.9333C31.7333 44.4186 31.1433 45.8429 30.0931 46.8931C29.0429 47.9433 27.6185 48.5333 26.1333 48.5333ZM41.0667 48.5333C39.5815 48.5333 38.1571 47.9433 37.1069 46.8931C36.0567 45.8429 35.4667 44.4186 35.4667 42.9333V33.6H46.6667V42.9333C46.6667 44.4186 46.0767 45.8429 45.0265 46.8931C43.9763 47.9433 42.5519 48.5333 41.0667 48.5333ZM56 48.5333C54.5148 48.5333 53.0904 47.9433 52.0402 46.8931C50.99 45.8429 50.4 44.4186 50.4 42.9333V33.6H61.6V42.9333C61.6 44.4186 61.01 45.8429 59.9598 46.8931C58.9096 47.9433 57.4852 48.5333 56 48.5333ZM70.9333 48.5333C69.4481 48.5333 68.0237 47.9433 66.9735 46.8931C65.9233 45.8429 65.3333 44.4186 65.3333 42.9333V33.6H76.5333V42.9333C76.5333 44.4186 75.9433 45.8429 74.8931 46.8931C73.8429 47.9433 72.4185 48.5333 70.9333 48.5333ZM91.4667 42.9333C91.4667 44.4186 90.8767 45.8429 89.8265 46.8931C88.7763 47.9433 87.3519 48.5333 85.8667 48.5333C84.3815 48.5333 82.9571 47.9433 81.9069 46.8931C80.8567 45.8429 80.2667 44.4186 80.2667 42.9333V33.6H91.4667V42.9333ZM108.267 29.8667H3.73333V26.1333H108.267V29.8667Z" fill="#3498DB"/>
<path d="M76.5333 56C74.0589 56.003 71.6866 56.9873 69.9369 58.737C68.1872 60.4866 67.203 62.8589 67.2 65.3333V67.2H61.6C61.1225 67.1992 60.6629 67.3815 60.3157 67.7093C59.9685 68.037 59.7601 68.4854 59.7333 68.9621L57.8667 102.562C57.8524 102.816 57.8902 103.07 57.9776 103.309C58.065 103.547 58.2003 103.766 58.375 103.95C58.5498 104.135 58.7604 104.282 58.994 104.382C59.2276 104.482 59.4791 104.534 59.7333 104.533H93.3333C93.5875 104.534 93.8391 104.482 94.0727 104.382C94.3063 104.282 94.5169 104.135 94.6917 103.95C94.8664 103.766 95.0017 103.547 95.0891 103.309C95.1765 103.07 95.2142 102.816 95.2 102.562L94.5784 91.3621C94.5507 90.8671 94.3274 90.4033 93.9578 90.0728C93.5881 89.7424 93.1023 89.5723 92.6072 89.6C92.1121 89.6277 91.6484 89.851 91.3179 90.2206C90.9874 90.5903 90.8173 91.0761 90.8451 91.5712L91.3603 100.8H61.7064L63.3659 70.9333H67.2V76.5333C67.2 77.0284 67.3967 77.5032 67.7467 77.8533C68.0968 78.2033 68.5716 78.4 69.0667 78.4C69.5617 78.4 70.0365 78.2033 70.3866 77.8533C70.7367 77.5032 70.9333 77.0284 70.9333 76.5333V70.9333H82.1333V76.5333C82.1333 77.0284 82.33 77.5032 82.6801 77.8533C83.0301 78.2033 83.5049 78.4 84 78.4C84.4951 78.4 84.9699 78.2033 85.3199 77.8533C85.67 77.5032 85.8667 77.0284 85.8667 76.5333V70.9333H89.7008L90.4325 84.1045C90.4463 84.3497 90.5081 84.5897 90.6146 84.8109C90.7211 85.0321 90.8701 85.2302 91.0532 85.3938C91.2362 85.5575 91.4497 85.6834 91.6814 85.7646C91.9132 85.8457 92.1586 85.8804 92.4037 85.8667C92.6489 85.8529 92.8889 85.7911 93.1101 85.6846C93.3313 85.5781 93.5294 85.4291 93.693 85.246C93.8567 85.063 93.9827 84.8495 94.0638 84.6178C94.1449 84.386 94.1796 84.1406 94.1659 83.8955L93.3371 68.9621C93.3103 68.4848 93.1014 68.0359 92.7534 67.708C92.4053 67.3801 91.9448 67.1983 91.4667 67.2H85.8667V65.3333C85.8637 62.8589 84.8794 60.4866 83.1297 58.737C81.38 56.9873 79.0078 56.003 76.5333 56ZM70.9333 67.2V65.3333C70.9333 63.8481 71.5233 62.4237 72.5735 61.3735C73.6237 60.3233 75.0481 59.7333 76.5333 59.7333C78.0185 59.7333 79.4429 60.3233 80.4931 61.3735C81.5433 62.4237 82.1333 63.8481 82.1333 65.3333V67.2H70.9333Z" fill="#3498DB"/>
<path d="M76.5333 80.2667C75.0566 80.2667 73.613 80.7046 72.3851 81.525C71.1572 82.3455 70.2002 83.5116 69.635 84.876C69.0699 86.2403 68.922 87.7416 69.2101 89.19C69.4982 90.6384 70.2094 91.9688 71.2536 93.0131C72.2978 94.0573 73.6283 94.7684 75.0767 95.0565C76.525 95.3446 78.0264 95.1968 79.3907 94.6316C80.7551 94.0665 81.9212 93.1095 82.7416 91.8816C83.5621 90.6537 84 89.2101 84 87.7333C84 85.7531 83.2133 83.8539 81.8131 82.4536C80.4128 81.0533 78.5136 80.2667 76.5333 80.2667ZM76.5333 91.4667C75.795 91.4667 75.0732 91.2477 74.4592 90.8375C73.8453 90.4273 73.3668 89.8442 73.0842 89.162C72.8016 88.4798 72.7277 87.7292 72.8717 87.005C73.0158 86.2808 73.3714 85.6156 73.8935 85.0935C74.4156 84.5714 75.0808 84.2158 75.805 84.0717C76.5292 83.9277 77.2798 84.0016 77.962 84.2842C78.6442 84.5668 79.2273 85.0453 79.6375 85.6592C80.0477 86.2732 80.2667 86.995 80.2667 87.7333C80.2667 88.7235 79.8733 89.6731 79.1732 90.3732C78.4731 91.0733 77.5235 91.4667 76.5333 91.4667Z" fill="#3498DB"/>
<path d="M41.0667 82.1333C40.5716 82.1333 40.0968 82.33 39.7467 82.6801C39.3967 83.0301 39.2 83.5049 39.2 84V91.4667C39.2 91.9617 39.3967 92.4365 39.7467 92.7866C40.0968 93.1367 40.5716 93.3333 41.0667 93.3333C41.5617 93.3333 42.0365 93.1367 42.3866 92.7866C42.7367 92.4365 42.9333 91.9617 42.9333 91.4667V84C42.9333 83.5049 42.7367 83.0301 42.3866 82.6801C42.0365 82.33 41.5617 82.1333 41.0667 82.1333Z" fill="#3498DB"/>
</svg>
