<svg width="101" height="101" viewBox="0 0 101 101" fill="none" xmlns="http://www.w3.org/2000/svg">
    <path fill-rule="evenodd" clip-rule="evenodd" d="M50.0769 4C24.6293 4 4 24.6293 4 50.0769C4 75.5245 24.6293 96.1538 50.0769 96.1538C75.5245 96.1538 96.1538 75.5245 96.1538 50.0769C96.1538 24.6293 75.5245 4 50.0769 4ZM0 50.0769C0 22.4202 22.4202 0 50.0769 0C77.7337 0 100.154 22.4202 100.154 50.0769C100.154 77.7337 77.7337 100.154 50.0769 100.154C22.4202 100.154 0 77.7337 0 50.0769ZM80.2161 71.2613L83.3015 73.8311C84.0721 72.7311 84.7904 71.5919 85.4529 70.4172C88.8966 64.3111 90.832 57.2459 90.7586 49.7323C90.5353 26.8985 71.8439 8.56911 49.0101 8.7924C39.0909 8.88939 30.0218 12.4715 22.9543 18.3643C21.9201 19.2267 20.9288 20.1384 19.9839 21.096L23.0696 23.666L80.2161 71.2613ZM26.0847 20.9715L82.3227 67.8102C85.2103 62.4464 86.8226 56.2999 86.7588 49.7714C86.5571 29.1467 69.6739 12.5905 49.0492 12.7922C40.3527 12.8772 32.3842 15.9243 26.0847 20.9715ZM79.3917 78.4135L76.2905 75.8626L18.8533 28.6186L15.7519 26.0676C14.9878 27.1748 14.2774 28.3191 13.6235 29.4962C9.15542 37.5405 7.33142 47.1193 9.09 56.8818C13.1382 79.355 34.6381 94.2913 57.1112 90.2431C64.5062 88.911 71.0851 85.6892 76.44 81.1649C77.4702 80.2946 78.455 79.376 79.3917 78.4135ZM73.2939 78.5771L16.7698 32.0841C12.9889 39.216 11.4848 47.6136 13.0266 56.1727C16.6832 76.4717 36.1031 89.963 56.4021 86.3064C62.8274 85.149 68.5643 82.4164 73.2939 78.5771Z" fill="#3498DB"/>
</svg>
