<svg width="113" height="87" viewBox="0 0 113 87" fill="none" xmlns="http://www.w3.org/2000/svg">
<path d="M-3.37686e-06 9.74642L-4.2603e-07 77.2536C-1.91116e-07 82.6278 4.34556 87 9.68698 87L15.5125 87C16.4265 87 17.1675 86.2545 17.1675 85.3349C17.1675 84.4153 16.4265 83.6697 15.5125 83.6697L9.68698 83.6697C6.17068 83.6697 3.30998 80.7915 3.30998 77.2536L3.30997 9.74642C3.30997 6.20855 6.17068 3.33029 9.68698 3.33029L103.313 3.33028C106.829 3.33028 109.69 6.20854 109.69 9.74642L109.69 77.2536C109.69 80.7915 106.829 83.6697 103.313 83.6697L22.1325 83.6697C21.2185 83.6697 20.4775 84.4153 20.4775 85.3349C20.4775 86.2545 21.2185 87 22.1325 87L103.313 87C108.654 87 113 82.6278 113 77.2536L113 9.74642C113 4.37222 108.654 -1.9628e-06 103.313 -1.72932e-06L9.68698 2.3632e-06C4.34556 2.59668e-06 -3.61177e-06 4.37222 -3.37686e-06 9.74642Z" fill="#3498DB"/>
<path d="M13.5572 80.3696L76.0889 80.3696C77.0029 80.3696 77.7439 79.6241 77.7439 78.7045C77.7439 77.7849 77.0029 77.0393 76.0889 77.0393L15.2122 77.0393L15.2122 9.96068L37.9085 9.96068C38.8225 9.96068 39.5635 9.21514 39.5635 8.29553C39.5635 7.37593 38.8225 6.63039 37.9085 6.63039L13.5572 6.63039C12.6432 6.63039 11.9022 7.37593 11.9022 8.29553L11.9022 78.7045C11.9022 79.6243 12.6432 80.3696 13.5572 80.3696Z" fill="#3498DB"/>
<path d="M95.3318 80.3696C96.2458 80.3696 96.9868 79.6241 96.9868 78.7045L96.9868 8.29553C96.9868 7.37593 96.2458 6.63038 95.3318 6.63038L44.5285 6.63039C43.6145 6.63039 42.8735 7.37593 42.8735 8.29553C42.8735 9.21513 43.6145 9.96068 44.5285 9.96068L93.6768 9.96067L93.6768 77.0393L82.7091 77.0393C81.7951 77.0393 81.0541 77.7849 81.0541 78.7045C81.0541 79.6241 81.7951 80.3696 82.7091 80.3696L95.3318 80.3696Z" fill="#3498DB"/>
<path d="M102.947 48.5727C105.727 48.5727 107.988 46.2972 107.988 43.5C107.988 40.7028 105.727 38.4273 102.947 38.4273C100.167 38.4273 97.905 40.703 97.905 43.5C97.905 46.2972 100.167 48.5727 102.947 48.5727ZM102.947 41.7576C103.902 41.7576 104.678 42.5393 104.678 43.5C104.678 44.4609 103.902 45.2424 102.947 45.2424C101.992 45.2424 101.215 44.4609 101.215 43.5C101.215 42.5393 101.992 41.7576 102.947 41.7576Z" fill="#3498DB"/>
<path d="M9.22755 36.3057C9.22755 35.3861 8.48656 34.6406 7.57257 34.6406C6.65857 34.6406 5.91758 35.3861 5.91758 36.3057L5.91758 43.8952C5.91758 44.8148 6.65857 45.5603 7.57257 45.5603C8.48656 45.5603 9.22755 44.8148 9.22755 43.8952L9.22755 36.3057Z" fill="#3498DB"/>
<path d="M9.22049 50.2509C9.22049 49.3313 8.47953 48.5858 7.56551 48.5858C6.65148 48.5858 5.91052 49.3313 5.91052 50.2509C5.91052 51.1706 6.65148 51.9161 7.56551 51.9161C8.47953 51.9161 9.22049 51.1706 9.22049 50.2509Z" fill="#3498DB"/>
</svg>
